<mxfile host="app.diagrams.net" modified="2022-04-05T07:18:54.332Z" agent="5.0 (Macintosh; Intel Mac OS X 10_15_6) AppleWebKit/605.1.15 (KHTML, like Gecko) Version/14.0.2 Safari/605.1.15" etag="pcQTFAUug07tArEDDbCo" version="17.4.0" type="github">
  <diagram id="C5RBs43oDa-KdzZeNtuy" name="Page-1">
    <mxGraphModel dx="4392" dy="2295" grid="1" gridSize="10" guides="1" tooltips="1" connect="1" arrows="1" fold="1" page="1" pageScale="1" pageWidth="827" pageHeight="1169" math="0" shadow="0">
      <root>
        <mxCell id="WIyWlLk6GJQsqaUBKTNV-0" />
        <mxCell id="WIyWlLk6GJQsqaUBKTNV-1" parent="WIyWlLk6GJQsqaUBKTNV-0" />
        <UserObject label="Input ID" lucidchartObjectId="mHa8FbC-u3HO" id="j4JM0gO3ZsuQMc5hAkjS-90">
          <mxCell style="html=1;overflow=block;blockSpacing=1;whiteSpace=wrap;ellipse;fontSize=13;spacing=0;strokeColor=#3a414a;strokeOpacity=100;rounded=1;absoluteArcSize=1;arcSize=9;strokeWidth=0.8;" parent="WIyWlLk6GJQsqaUBKTNV-1" vertex="1">
            <mxGeometry x="435" y="405" width="210" height="180" as="geometry" />
          </mxCell>
        </UserObject>
        <UserObject label="Display invalid ID" lucidchartObjectId="PMa80WgqF6gf" id="j4JM0gO3ZsuQMc5hAkjS-91">
          <mxCell style="html=1;overflow=block;blockSpacing=1;whiteSpace=wrap;ellipse;fontSize=13;spacing=3.8;strokeColor=#3a414a;strokeOpacity=100;rounded=1;absoluteArcSize=1;arcSize=9;strokeWidth=0.8;" parent="WIyWlLk6GJQsqaUBKTNV-1" vertex="1">
            <mxGeometry x="210" y="504" width="120" height="75" as="geometry" />
          </mxCell>
        </UserObject>
        <UserObject label="Select exit" lucidchartObjectId="DQa82I.A3JS7" id="j4JM0gO3ZsuQMc5hAkjS-92">
          <mxCell style="html=1;overflow=block;blockSpacing=1;whiteSpace=wrap;ellipse;fontSize=13;spacing=3.8;strokeColor=#3a414a;strokeOpacity=100;rounded=1;absoluteArcSize=1;arcSize=9;strokeWidth=0.8;" parent="WIyWlLk6GJQsqaUBKTNV-1" vertex="1">
            <mxGeometry x="210" y="390" width="120" height="75" as="geometry" />
          </mxCell>
        </UserObject>
        <UserObject label="Check ID exist" lucidchartObjectId="1Va8YR-hhlV3" id="j4JM0gO3ZsuQMc5hAkjS-93">
          <mxCell style="html=1;overflow=block;blockSpacing=1;whiteSpace=wrap;ellipse;fontSize=13;spacing=3.8;strokeColor=#3a414a;strokeOpacity=100;rounded=1;absoluteArcSize=1;arcSize=9;strokeWidth=0.8;" parent="WIyWlLk6GJQsqaUBKTNV-1" vertex="1">
            <mxGeometry x="705" y="405" width="120" height="90" as="geometry" />
          </mxCell>
        </UserObject>
        <UserObject label="Display valid ID" lucidchartObjectId="ZXa8n5DUXpTZ" id="j4JM0gO3ZsuQMc5hAkjS-94">
          <mxCell style="html=1;overflow=block;blockSpacing=1;whiteSpace=wrap;ellipse;fontSize=13;spacing=3.8;strokeColor=#3a414a;strokeOpacity=100;rounded=1;absoluteArcSize=1;arcSize=9;strokeWidth=0.8;" parent="WIyWlLk6GJQsqaUBKTNV-1" vertex="1">
            <mxGeometry x="705" y="555" width="120" height="75" as="geometry" />
          </mxCell>
        </UserObject>
        <UserObject label="Input new data" lucidchartObjectId="qYa8J5TgPwk7" id="j4JM0gO3ZsuQMc5hAkjS-95">
          <mxCell style="html=1;overflow=block;blockSpacing=1;whiteSpace=wrap;ellipse;fontSize=13;spacing=3.8;strokeColor=#3a414a;strokeOpacity=100;rounded=1;absoluteArcSize=1;arcSize=9;strokeWidth=0.8;" parent="WIyWlLk6GJQsqaUBKTNV-1" vertex="1">
            <mxGeometry x="885" y="488" width="120" height="75" as="geometry" />
          </mxCell>
        </UserObject>
        <UserObject label="Add to list" lucidchartObjectId="m9a8UZ9RnOd5" id="j4JM0gO3ZsuQMc5hAkjS-96">
          <mxCell style="html=1;overflow=block;blockSpacing=1;whiteSpace=wrap;ellipse;fontSize=13;spacing=3.8;strokeColor=#3a414a;strokeOpacity=100;rounded=1;absoluteArcSize=1;arcSize=9;strokeWidth=0.8;" parent="WIyWlLk6GJQsqaUBKTNV-1" vertex="1">
            <mxGeometry x="885" y="345" width="120" height="75" as="geometry" />
          </mxCell>
        </UserObject>
        <UserObject label="Display successfullly" lucidchartObjectId="H-a8ZPSqh-qd" id="j4JM0gO3ZsuQMc5hAkjS-97">
          <mxCell style="html=1;overflow=block;blockSpacing=1;whiteSpace=wrap;ellipse;fontSize=13;spacing=3.8;strokeColor=#3a414a;strokeOpacity=100;rounded=1;absoluteArcSize=1;arcSize=9;strokeWidth=0.8;" parent="WIyWlLk6GJQsqaUBKTNV-1" vertex="1">
            <mxGeometry x="885" y="195" width="120" height="75" as="geometry" />
          </mxCell>
        </UserObject>
        <UserObject label="Display invalid choice" lucidchartObjectId="4.a8jyZt7I0b" id="j4JM0gO3ZsuQMc5hAkjS-98">
          <mxCell style="html=1;overflow=block;blockSpacing=1;whiteSpace=wrap;ellipse;fontSize=13;spacing=3.8;strokeColor=#3a414a;strokeOpacity=100;rounded=1;absoluteArcSize=1;arcSize=9;strokeWidth=0.8;" parent="WIyWlLk6GJQsqaUBKTNV-1" vertex="1">
            <mxGeometry x="675" y="90" width="120" height="60" as="geometry" />
          </mxCell>
        </UserObject>
        <UserObject label="Select create new student " lucidchartObjectId="uab8n~fae0BG" id="j4JM0gO3ZsuQMc5hAkjS-99">
          <mxCell style="html=1;overflow=block;blockSpacing=1;whiteSpace=wrap;ellipse;fontSize=13;spacing=0;strokeColor=#3a414a;strokeOpacity=100;rounded=1;absoluteArcSize=1;arcSize=9;strokeWidth=0.8;" parent="WIyWlLk6GJQsqaUBKTNV-1" vertex="1">
            <mxGeometry x="465" y="248" width="150" height="105" as="geometry" />
          </mxCell>
        </UserObject>
        <UserObject label="Select exit" lucidchartObjectId="Oab8FPMww8My" id="j4JM0gO3ZsuQMc5hAkjS-100">
          <mxCell style="html=1;overflow=block;blockSpacing=1;whiteSpace=wrap;ellipse;fontSize=13;spacing=0;strokeColor=#3a414a;strokeOpacity=100;rounded=1;absoluteArcSize=1;arcSize=9;strokeWidth=0.8;" parent="WIyWlLk6GJQsqaUBKTNV-1" vertex="1">
            <mxGeometry x="405" y="120" width="150" height="90" as="geometry" />
          </mxCell>
        </UserObject>
        <UserObject label="" lucidchartObjectId="Wmb8q0fEmkBV" id="j4JM0gO3ZsuQMc5hAkjS-101">
          <mxCell style="html=1;jettySize=18;whiteSpace=wrap;fontSize=13;strokeColor=#3a414a;strokeOpacity=100;dashed=1;fixDash=1;strokeWidth=0.8;rounded=0;startArrow=none;endArrow=open;exitX=0.816;exitY=0.109;exitPerimeter=0;entryX=-0.002;entryY=0.526;entryPerimeter=0;" parent="WIyWlLk6GJQsqaUBKTNV-1" source="j4JM0gO3ZsuQMc5hAkjS-129" target="j4JM0gO3ZsuQMc5hAkjS-100" edge="1">
            <mxGeometry width="100" height="100" relative="1" as="geometry">
              <Array as="points" />
            </mxGeometry>
          </mxCell>
        </UserObject>
        <mxCell id="j4JM0gO3ZsuQMc5hAkjS-102" value="&amp;lt;&amp;lt;Include&amp;gt;&amp;gt;" style="text;html=1;resizable=0;labelBackgroundColor=default;align=center;verticalAlign=middle;fontStyle=1;fontColor=#333333;fontSize=13.3;" parent="j4JM0gO3ZsuQMc5hAkjS-101" vertex="1">
          <mxGeometry relative="1" as="geometry" />
        </mxCell>
        <UserObject label="" lucidchartObjectId="lnb8wjUi0QL5" id="j4JM0gO3ZsuQMc5hAkjS-103">
          <mxCell style="html=1;jettySize=18;whiteSpace=wrap;fontSize=13;strokeColor=#3a414a;strokeOpacity=100;dashed=1;fixDash=1;strokeWidth=0.8;rounded=0;startArrow=none;endArrow=open;exitX=1.002;exitY=0.5;exitPerimeter=0;entryX=-0.003;entryY=0.5;entryPerimeter=0;" parent="WIyWlLk6GJQsqaUBKTNV-1" source="j4JM0gO3ZsuQMc5hAkjS-129" target="j4JM0gO3ZsuQMc5hAkjS-99" edge="1">
            <mxGeometry width="100" height="100" relative="1" as="geometry">
              <Array as="points" />
            </mxGeometry>
          </mxCell>
        </UserObject>
        <mxCell id="j4JM0gO3ZsuQMc5hAkjS-104" value="&amp;lt;&amp;lt;Include&amp;gt;&amp;gt;" style="text;html=1;resizable=0;labelBackgroundColor=default;align=center;verticalAlign=middle;fontStyle=1;fontColor=#333333;fontSize=13.3;" parent="j4JM0gO3ZsuQMc5hAkjS-103" vertex="1">
          <mxGeometry relative="1" as="geometry" />
        </mxCell>
        <UserObject label="" lucidchartObjectId="eob8lZchYwXj" id="j4JM0gO3ZsuQMc5hAkjS-105">
          <mxCell style="html=1;jettySize=18;whiteSpace=wrap;fontSize=13;strokeColor=#3a414a;strokeOpacity=100;dashed=1;fixDash=1;strokeWidth=0.8;rounded=0;startArrow=none;endArrow=open;exitX=0.117;exitY=0.176;exitPerimeter=0;entryX=1.003;entryY=0.5;entryPerimeter=0;" parent="WIyWlLk6GJQsqaUBKTNV-1" source="j4JM0gO3ZsuQMc5hAkjS-90" target="j4JM0gO3ZsuQMc5hAkjS-92" edge="1">
            <mxGeometry width="100" height="100" relative="1" as="geometry">
              <Array as="points" />
            </mxGeometry>
          </mxCell>
        </UserObject>
        <mxCell id="j4JM0gO3ZsuQMc5hAkjS-106" value="I&amp;lt;&amp;lt;Include&amp;gt;&amp;gt;" style="text;html=1;resizable=0;labelBackgroundColor=default;align=center;verticalAlign=middle;fontStyle=1;fontColor=#333333;fontSize=13.3;" parent="j4JM0gO3ZsuQMc5hAkjS-105" vertex="1">
          <mxGeometry relative="1" as="geometry" />
        </mxCell>
        <UserObject label="" lucidchartObjectId="Vob8nI.QNhCe" id="j4JM0gO3ZsuQMc5hAkjS-107">
          <mxCell style="html=1;jettySize=18;whiteSpace=wrap;fontSize=13;strokeColor=#3a414a;strokeOpacity=100;dashed=1;fixDash=1;strokeWidth=0.8;rounded=0;startArrow=none;endArrow=open;exitX=0.5;exitY=1.004;exitPerimeter=0;entryX=0.5;entryY=-0.002;entryPerimeter=0;" parent="WIyWlLk6GJQsqaUBKTNV-1" source="j4JM0gO3ZsuQMc5hAkjS-99" target="j4JM0gO3ZsuQMc5hAkjS-90" edge="1">
            <mxGeometry width="100" height="100" relative="1" as="geometry">
              <Array as="points" />
            </mxGeometry>
          </mxCell>
        </UserObject>
        <mxCell id="j4JM0gO3ZsuQMc5hAkjS-108" value="&amp;lt;&amp;lt;Include&amp;gt;&amp;gt;" style="text;html=1;resizable=0;labelBackgroundColor=default;align=center;verticalAlign=middle;fontStyle=1;fontColor=#333333;fontSize=13.3;" parent="j4JM0gO3ZsuQMc5hAkjS-107" vertex="1">
          <mxGeometry relative="1" as="geometry" />
        </mxCell>
        <UserObject label="" lucidchartObjectId="upb89a0rZcZW" id="j4JM0gO3ZsuQMc5hAkjS-109">
          <mxCell style="html=1;jettySize=18;whiteSpace=wrap;fontSize=13;strokeColor=#3a414a;strokeOpacity=100;dashed=1;fixDash=1;strokeWidth=0.8;rounded=0;startArrow=none;endArrow=open;exitX=0.813;exitY=0.105;exitPerimeter=0;entryX=-0.002;entryY=0.5;entryPerimeter=0;" parent="WIyWlLk6GJQsqaUBKTNV-1" source="j4JM0gO3ZsuQMc5hAkjS-91" target="j4JM0gO3ZsuQMc5hAkjS-90" edge="1">
            <mxGeometry width="100" height="100" relative="1" as="geometry">
              <Array as="points" />
            </mxGeometry>
          </mxCell>
        </UserObject>
        <mxCell id="j4JM0gO3ZsuQMc5hAkjS-110" value="&amp;lt;&amp;lt;Exntend&amp;gt;&amp;gt;" style="text;html=1;resizable=0;labelBackgroundColor=default;align=center;verticalAlign=middle;fontStyle=1;fontColor=#333333;fontSize=13.3;" parent="j4JM0gO3ZsuQMc5hAkjS-109" vertex="1">
          <mxGeometry x="-0.11652443503951138" relative="1" as="geometry" />
        </mxCell>
        <UserObject label="" lucidchartObjectId="Vpb8KKqE-k80" id="j4JM0gO3ZsuQMc5hAkjS-111">
          <mxCell style="html=1;jettySize=18;whiteSpace=wrap;fontSize=13;strokeColor=#3a414a;strokeOpacity=100;dashed=1;fixDash=1;strokeWidth=0.8;rounded=0;startArrow=none;endArrow=open;exitX=-0.003;exitY=0.5;exitPerimeter=0;entryX=1.003;entryY=0.5;entryPerimeter=0;" parent="WIyWlLk6GJQsqaUBKTNV-1" source="j4JM0gO3ZsuQMc5hAkjS-98" target="j4JM0gO3ZsuQMc5hAkjS-100" edge="1">
            <mxGeometry width="100" height="100" relative="1" as="geometry">
              <Array as="points" />
            </mxGeometry>
          </mxCell>
        </UserObject>
        <mxCell id="j4JM0gO3ZsuQMc5hAkjS-112" value="&amp;lt;&amp;lt;Extdend&amp;gt;&amp;gt;" style="text;html=1;resizable=0;labelBackgroundColor=default;align=center;verticalAlign=middle;fontStyle=1;fontColor=#333333;fontSize=13.3;" parent="j4JM0gO3ZsuQMc5hAkjS-111" vertex="1">
          <mxGeometry relative="1" as="geometry" />
        </mxCell>
        <UserObject label="" lucidchartObjectId="eqb8_KJ5muBw" id="j4JM0gO3ZsuQMc5hAkjS-113">
          <mxCell style="html=1;jettySize=18;whiteSpace=wrap;fontSize=13;strokeColor=#3a414a;strokeOpacity=100;dashed=1;fixDash=1;strokeWidth=0.8;rounded=0;startArrow=none;endArrow=open;exitX=0.195;exitY=0.902;exitPerimeter=0;entryX=0.871;entryY=0.16;entryPerimeter=0;" parent="WIyWlLk6GJQsqaUBKTNV-1" source="j4JM0gO3ZsuQMc5hAkjS-98" target="j4JM0gO3ZsuQMc5hAkjS-99" edge="1">
            <mxGeometry width="100" height="100" relative="1" as="geometry">
              <Array as="points" />
            </mxGeometry>
          </mxCell>
        </UserObject>
        <mxCell id="j4JM0gO3ZsuQMc5hAkjS-114" value="&amp;lt;&amp;lt;Extend&amp;gt;&amp;gt;" style="text;html=1;resizable=0;labelBackgroundColor=default;align=center;verticalAlign=middle;fontStyle=1;fontColor=#333333;fontSize=13.3;" parent="j4JM0gO3ZsuQMc5hAkjS-113" vertex="1">
          <mxGeometry relative="1" as="geometry" />
        </mxCell>
        <UserObject label="" lucidchartObjectId="Nqb8Me_qiDZH" id="j4JM0gO3ZsuQMc5hAkjS-115">
          <mxCell style="html=1;jettySize=18;whiteSpace=wrap;fontSize=13;strokeColor=#3a414a;strokeOpacity=100;dashed=1;fixDash=1;strokeWidth=0.8;rounded=0;startArrow=none;endArrow=open;exitX=0.935;exitY=0.25;exitPerimeter=0;entryX=-0.003;entryY=0.5;entryPerimeter=0;" parent="WIyWlLk6GJQsqaUBKTNV-1" source="j4JM0gO3ZsuQMc5hAkjS-90" target="j4JM0gO3ZsuQMc5hAkjS-93" edge="1">
            <mxGeometry width="100" height="100" relative="1" as="geometry">
              <Array as="points" />
            </mxGeometry>
          </mxCell>
        </UserObject>
        <mxCell id="j4JM0gO3ZsuQMc5hAkjS-116" value="&amp;lt;&amp;lt;Include&amp;gt;&amp;gt;" style="text;html=1;resizable=0;labelBackgroundColor=default;align=center;verticalAlign=middle;fontStyle=1;fontColor=#333333;fontSize=13.3;" parent="j4JM0gO3ZsuQMc5hAkjS-115" vertex="1">
          <mxGeometry relative="1" as="geometry" />
        </mxCell>
        <UserObject label="" lucidchartObjectId="6qb8cWZSV_Ia" id="j4JM0gO3ZsuQMc5hAkjS-117">
          <mxCell style="html=1;jettySize=18;whiteSpace=wrap;fontSize=13;strokeColor=#3a414a;strokeOpacity=100;dashed=1;fixDash=1;strokeWidth=0.8;rounded=0;startArrow=none;endArrow=open;exitX=0.5;exitY=1.004;exitPerimeter=0;entryX=0.5;entryY=-0.005;entryPerimeter=0;" parent="WIyWlLk6GJQsqaUBKTNV-1" source="j4JM0gO3ZsuQMc5hAkjS-93" target="j4JM0gO3ZsuQMc5hAkjS-94" edge="1">
            <mxGeometry width="100" height="100" relative="1" as="geometry">
              <Array as="points" />
            </mxGeometry>
          </mxCell>
        </UserObject>
        <mxCell id="j4JM0gO3ZsuQMc5hAkjS-118" value="&amp;lt;&amp;lt;Include&amp;gt;&amp;gt;" style="text;html=1;resizable=0;labelBackgroundColor=default;align=center;verticalAlign=middle;fontStyle=1;fontColor=#333333;fontSize=13.3;" parent="j4JM0gO3ZsuQMc5hAkjS-117" vertex="1">
          <mxGeometry x="-0.13349642672521145" relative="1" as="geometry" />
        </mxCell>
        <UserObject label="" lucidchartObjectId="Arb8xh4WzPYn" id="j4JM0gO3ZsuQMc5hAkjS-119">
          <mxCell style="html=1;jettySize=18;whiteSpace=wrap;fontSize=13;strokeColor=#3a414a;strokeOpacity=100;dashed=1;fixDash=1;strokeWidth=0.8;rounded=0;startArrow=none;endArrow=open;exitX=0.919;exitY=0.221;exitPerimeter=0;entryX=0.233;entryY=0.928;entryPerimeter=0;" parent="WIyWlLk6GJQsqaUBKTNV-1" source="j4JM0gO3ZsuQMc5hAkjS-94" target="j4JM0gO3ZsuQMc5hAkjS-95" edge="1">
            <mxGeometry width="100" height="100" relative="1" as="geometry">
              <Array as="points" />
            </mxGeometry>
          </mxCell>
        </UserObject>
        <mxCell id="j4JM0gO3ZsuQMc5hAkjS-120" value="&amp;lt;&amp;lt;Include&amp;gt;&amp;gt;" style="text;html=1;resizable=0;labelBackgroundColor=default;align=center;verticalAlign=middle;fontStyle=1;fontColor=#333333;fontSize=13.3;" parent="j4JM0gO3ZsuQMc5hAkjS-119" vertex="1">
          <mxGeometry x="-0.12458644486214088" relative="1" as="geometry" />
        </mxCell>
        <UserObject label="" lucidchartObjectId="Zrb83yh.wDxn" id="j4JM0gO3ZsuQMc5hAkjS-121">
          <mxCell style="html=1;jettySize=18;whiteSpace=wrap;fontSize=13;strokeColor=#3a414a;strokeOpacity=100;dashed=1;fixDash=1;strokeWidth=0.8;rounded=0;startArrow=none;endArrow=open;exitX=0.5;exitY=-0.005;exitPerimeter=0;entryX=0.5;entryY=1.005;entryPerimeter=0;" parent="WIyWlLk6GJQsqaUBKTNV-1" source="j4JM0gO3ZsuQMc5hAkjS-95" target="j4JM0gO3ZsuQMc5hAkjS-96" edge="1">
            <mxGeometry width="100" height="100" relative="1" as="geometry">
              <Array as="points" />
            </mxGeometry>
          </mxCell>
        </UserObject>
        <mxCell id="j4JM0gO3ZsuQMc5hAkjS-122" value="&amp;lt;&amp;lt;Include&amp;gt;&amp;gt;" style="text;html=1;resizable=0;labelBackgroundColor=default;align=center;verticalAlign=middle;fontStyle=1;fontColor=#333333;fontSize=13.3;" parent="j4JM0gO3ZsuQMc5hAkjS-121" vertex="1">
          <mxGeometry x="-0.26372134861695307" relative="1" as="geometry" />
        </mxCell>
        <UserObject label="" lucidchartObjectId="-rb8NfJUSlah" id="j4JM0gO3ZsuQMc5hAkjS-123">
          <mxCell style="html=1;jettySize=18;whiteSpace=wrap;fontSize=13;strokeColor=#3a414a;strokeOpacity=100;dashed=1;fixDash=1;strokeWidth=0.8;rounded=0;startArrow=none;endArrow=open;exitX=0.5;exitY=-0.005;exitPerimeter=0;entryX=0.5;entryY=1.005;entryPerimeter=0;" parent="WIyWlLk6GJQsqaUBKTNV-1" source="j4JM0gO3ZsuQMc5hAkjS-96" target="j4JM0gO3ZsuQMc5hAkjS-97" edge="1">
            <mxGeometry width="100" height="100" relative="1" as="geometry">
              <Array as="points" />
            </mxGeometry>
          </mxCell>
        </UserObject>
        <mxCell id="j4JM0gO3ZsuQMc5hAkjS-124" value="&amp;lt;&amp;lt;Include&amp;gt;&amp;gt;" style="text;html=1;resizable=0;labelBackgroundColor=default;align=center;verticalAlign=middle;fontStyle=1;fontColor=#333333;fontSize=13.3;" parent="j4JM0gO3ZsuQMc5hAkjS-123" vertex="1">
          <mxGeometry relative="1" as="geometry" />
        </mxCell>
        <UserObject label="" lucidchartObjectId="xsb8uF0S7NCb" id="j4JM0gO3ZsuQMc5hAkjS-125">
          <mxCell style="html=1;jettySize=18;whiteSpace=wrap;fontSize=13;strokeColor=#3a414a;strokeOpacity=100;dashed=1;fixDash=1;strokeWidth=0.8;rounded=0;startArrow=none;endArrow=open;exitX=-0.002;exitY=0.475;exitPerimeter=0;entryX=0.948;entryY=0.729;entryPerimeter=0;" parent="WIyWlLk6GJQsqaUBKTNV-1" source="j4JM0gO3ZsuQMc5hAkjS-97" target="j4JM0gO3ZsuQMc5hAkjS-100" edge="1">
            <mxGeometry width="100" height="100" relative="1" as="geometry">
              <Array as="points" />
            </mxGeometry>
          </mxCell>
        </UserObject>
        <mxCell id="j4JM0gO3ZsuQMc5hAkjS-126" value="&amp;lt;&amp;lt;Include&amp;gt;&amp;gt;" style="text;html=1;resizable=0;labelBackgroundColor=default;align=center;verticalAlign=middle;fontStyle=1;fontColor=#333333;fontSize=13.3;" parent="j4JM0gO3ZsuQMc5hAkjS-125" vertex="1">
          <mxGeometry x="-0.18611483779787452" relative="1" as="geometry" />
        </mxCell>
        <UserObject label="" lucidchartObjectId="rtb8BLVJzzra" id="j4JM0gO3ZsuQMc5hAkjS-127">
          <mxCell style="html=1;jettySize=18;whiteSpace=wrap;fontSize=13;strokeColor=#3a414a;strokeOpacity=100;dashed=1;fixDash=1;strokeWidth=0.8;rounded=0;startArrow=none;endArrow=open;exitX=0.178;exitY=0.888;exitPerimeter=0;entryX=1.003;entryY=0.5;entryPerimeter=0;" parent="WIyWlLk6GJQsqaUBKTNV-1" source="j4JM0gO3ZsuQMc5hAkjS-97" target="j4JM0gO3ZsuQMc5hAkjS-99" edge="1">
            <mxGeometry width="100" height="100" relative="1" as="geometry">
              <Array as="points" />
            </mxGeometry>
          </mxCell>
        </UserObject>
        <mxCell id="j4JM0gO3ZsuQMc5hAkjS-128" value="&amp;lt;&amp;lt;Include&amp;gt;&amp;gt;" style="text;html=1;resizable=0;labelBackgroundColor=default;align=center;verticalAlign=middle;fontStyle=1;fontColor=#333333;fontSize=13.3;" parent="j4JM0gO3ZsuQMc5hAkjS-127" vertex="1">
          <mxGeometry x="-0.1125776492706495" relative="1" as="geometry" />
        </mxCell>
        <UserObject label="Create new" lucidchartObjectId="SCb8bLOcmzCx" id="j4JM0gO3ZsuQMc5hAkjS-129">
          <mxCell style="html=1;overflow=block;blockSpacing=1;whiteSpace=wrap;ellipse;fontSize=13;spacing=3.8;strokeColor=#3a414a;strokeOpacity=100;rounded=1;absoluteArcSize=1;arcSize=9;strokeWidth=0.8;" parent="WIyWlLk6GJQsqaUBKTNV-1" vertex="1">
            <mxGeometry x="188" y="246" width="165" height="105" as="geometry" />
          </mxCell>
        </UserObject>
        <UserObject label="View all enrollment" lucidchartObjectId="wDb8d5ZHAHH7" id="j4JM0gO3ZsuQMc5hAkjS-130">
          <mxCell style="html=1;overflow=block;blockSpacing=1;whiteSpace=wrap;ellipse;fontSize=13;spacing=3.8;strokeColor=#3a414a;strokeOpacity=100;rounded=1;absoluteArcSize=1;arcSize=9;strokeWidth=0.8;" parent="WIyWlLk6GJQsqaUBKTNV-1" vertex="1">
            <mxGeometry x="188" y="675" width="165" height="105" as="geometry" />
          </mxCell>
        </UserObject>
        <UserObject label="Display all enrollment" lucidchartObjectId="oEb8eaK3BChd" id="j4JM0gO3ZsuQMc5hAkjS-131">
          <mxCell style="html=1;overflow=block;blockSpacing=1;whiteSpace=wrap;ellipse;fontSize=13;spacing=3.8;strokeColor=#3a414a;strokeOpacity=100;rounded=1;absoluteArcSize=1;arcSize=9;strokeWidth=0.8;" parent="WIyWlLk6GJQsqaUBKTNV-1" vertex="1">
            <mxGeometry x="465" y="675" width="165" height="105" as="geometry" />
          </mxCell>
        </UserObject>
        <UserObject label="" lucidchartObjectId="NEb8YcKlREL_" id="j4JM0gO3ZsuQMc5hAkjS-132">
          <mxCell style="html=1;jettySize=18;whiteSpace=wrap;fontSize=13;strokeColor=#3a414a;strokeOpacity=100;dashed=1;fixDash=1;strokeWidth=0.8;rounded=0;startArrow=none;endArrow=open;exitX=1.002;exitY=0.5;exitPerimeter=0;entryX=-0.002;entryY=0.5;entryPerimeter=0;" parent="WIyWlLk6GJQsqaUBKTNV-1" source="j4JM0gO3ZsuQMc5hAkjS-130" target="j4JM0gO3ZsuQMc5hAkjS-131" edge="1">
            <mxGeometry width="100" height="100" relative="1" as="geometry">
              <Array as="points" />
            </mxGeometry>
          </mxCell>
        </UserObject>
        <mxCell id="j4JM0gO3ZsuQMc5hAkjS-133" value="&amp;lt;&amp;lt;Include&amp;gt;&amp;gt;" style="text;html=1;resizable=0;labelBackgroundColor=default;align=center;verticalAlign=middle;fontStyle=1;fontColor=#333333;fontSize=13.3;" parent="j4JM0gO3ZsuQMc5hAkjS-132" vertex="1">
          <mxGeometry relative="1" as="geometry" />
        </mxCell>
        <UserObject label="Select perform tasks" lucidchartObjectId="EFb8_NY0V9x1" id="j4JM0gO3ZsuQMc5hAkjS-134">
          <mxCell style="html=1;overflow=block;blockSpacing=1;whiteSpace=wrap;ellipse;fontSize=13;spacing=0;strokeColor=#3a414a;strokeOpacity=100;rounded=1;absoluteArcSize=1;arcSize=9;strokeWidth=0.8;" parent="WIyWlLk6GJQsqaUBKTNV-1" vertex="1">
            <mxGeometry x="300" y="825" width="150" height="90" as="geometry" />
          </mxCell>
        </UserObject>
        <UserObject label="" lucidchartObjectId="7Fb8HaHSFhnt" id="j4JM0gO3ZsuQMc5hAkjS-135">
          <mxCell style="html=1;jettySize=18;whiteSpace=wrap;fontSize=13;strokeColor=#3a414a;strokeOpacity=100;dashed=1;fixDash=1;strokeWidth=0.8;rounded=0;startArrow=none;endArrow=open;exitX=0.5;exitY=1.004;exitPerimeter=0;entryX=0.5;entryY=-0.004;entryPerimeter=0;" parent="WIyWlLk6GJQsqaUBKTNV-1" source="j4JM0gO3ZsuQMc5hAkjS-131" target="j4JM0gO3ZsuQMc5hAkjS-134" edge="1">
            <mxGeometry width="100" height="100" relative="1" as="geometry">
              <Array as="points" />
            </mxGeometry>
          </mxCell>
        </UserObject>
        <mxCell id="j4JM0gO3ZsuQMc5hAkjS-136" value="&amp;lt;&amp;lt;Include&amp;gt;&amp;gt;" style="text;html=1;resizable=0;labelBackgroundColor=default;align=center;verticalAlign=middle;fontStyle=1;fontColor=#333333;fontSize=13.3;" parent="j4JM0gO3ZsuQMc5hAkjS-135" vertex="1">
          <mxGeometry relative="1" as="geometry" />
        </mxCell>
        <UserObject label="Select exit" lucidchartObjectId="FGb8ll7RfpEJ" id="j4JM0gO3ZsuQMc5hAkjS-137">
          <mxCell style="html=1;overflow=block;blockSpacing=1;whiteSpace=wrap;ellipse;fontSize=13;spacing=0;strokeColor=#3a414a;strokeOpacity=100;rounded=1;absoluteArcSize=1;arcSize=9;strokeWidth=0.8;" parent="WIyWlLk6GJQsqaUBKTNV-1" vertex="1">
            <mxGeometry x="750" y="675" width="150" height="90" as="geometry" />
          </mxCell>
        </UserObject>
        <UserObject label="" lucidchartObjectId="QGb8UY0dnj~G" id="j4JM0gO3ZsuQMc5hAkjS-138">
          <mxCell style="html=1;jettySize=18;whiteSpace=wrap;fontSize=13;strokeColor=#3a414a;strokeOpacity=100;dashed=1;fixDash=1;strokeWidth=0.8;rounded=0;startArrow=none;endArrow=open;exitX=1.002;exitY=0.5;exitPerimeter=0;entryX=-0.003;entryY=0.5;entryPerimeter=0;" parent="WIyWlLk6GJQsqaUBKTNV-1" source="j4JM0gO3ZsuQMc5hAkjS-131" target="j4JM0gO3ZsuQMc5hAkjS-137" edge="1">
            <mxGeometry width="100" height="100" relative="1" as="geometry">
              <Array as="points" />
            </mxGeometry>
          </mxCell>
        </UserObject>
        <mxCell id="j4JM0gO3ZsuQMc5hAkjS-139" value="&amp;lt;&amp;lt;Include&amp;gt;&amp;gt;" style="text;html=1;resizable=0;labelBackgroundColor=default;align=center;verticalAlign=middle;fontStyle=1;fontColor=#333333;fontSize=13.3;" parent="j4JM0gO3ZsuQMc5hAkjS-138" vertex="1">
          <mxGeometry relative="1" as="geometry" />
        </mxCell>
        <UserObject label="Display invalid choice" lucidchartObjectId="7Ib80XFGPlk5" id="j4JM0gO3ZsuQMc5hAkjS-140">
          <mxCell style="html=1;overflow=block;blockSpacing=1;whiteSpace=wrap;ellipse;fontSize=13;spacing=3.8;strokeColor=#3a414a;strokeOpacity=100;rounded=1;absoluteArcSize=1;arcSize=9;strokeWidth=0.8;" parent="WIyWlLk6GJQsqaUBKTNV-1" vertex="1">
            <mxGeometry x="580" y="810" width="120" height="60" as="geometry" />
          </mxCell>
        </UserObject>
        <UserObject label="" lucidchartObjectId="aJb82_LpkzpE" id="j4JM0gO3ZsuQMc5hAkjS-141">
          <mxCell style="html=1;jettySize=18;whiteSpace=wrap;fontSize=13;strokeColor=#3a414a;strokeOpacity=100;dashed=1;fixDash=1;strokeWidth=0.8;rounded=0;startArrow=none;endArrow=open;exitX=0.069;exitY=0.762;exitPerimeter=0;entryX=0.946;entryY=0.268;entryPerimeter=0;" parent="WIyWlLk6GJQsqaUBKTNV-1" source="j4JM0gO3ZsuQMc5hAkjS-140" target="j4JM0gO3ZsuQMc5hAkjS-134" edge="1">
            <mxGeometry width="100" height="100" relative="1" as="geometry">
              <Array as="points" />
            </mxGeometry>
          </mxCell>
        </UserObject>
        <mxCell id="j4JM0gO3ZsuQMc5hAkjS-142" value="&amp;lt;&amp;lt;Extend&amp;gt;&amp;gt;" style="text;html=1;resizable=0;labelBackgroundColor=default;align=center;verticalAlign=middle;fontStyle=1;fontColor=#333333;fontSize=13.3;" parent="j4JM0gO3ZsuQMc5hAkjS-141" vertex="1">
          <mxGeometry x="-0.12204805579849076" relative="1" as="geometry" />
        </mxCell>
        <UserObject label="" lucidchartObjectId="mJb8IXf~KBaA" id="j4JM0gO3ZsuQMc5hAkjS-143">
          <mxCell style="html=1;jettySize=18;whiteSpace=wrap;fontSize=13;strokeColor=#3a414a;strokeOpacity=100;dashed=1;fixDash=1;strokeWidth=0.8;rounded=0;startArrow=none;endArrow=open;exitX=0.798;exitY=0.093;exitPerimeter=0;entryX=0.299;entryY=0.962;entryPerimeter=0;" parent="WIyWlLk6GJQsqaUBKTNV-1" source="j4JM0gO3ZsuQMc5hAkjS-140" target="j4JM0gO3ZsuQMc5hAkjS-137" edge="1">
            <mxGeometry width="100" height="100" relative="1" as="geometry">
              <Array as="points" />
            </mxGeometry>
          </mxCell>
        </UserObject>
        <mxCell id="j4JM0gO3ZsuQMc5hAkjS-144" value="&amp;lt;&amp;lt;Extend&amp;gt;&amp;gt;" style="text;html=1;resizable=0;labelBackgroundColor=default;align=center;verticalAlign=middle;fontStyle=1;fontColor=#333333;fontSize=13.3;" parent="j4JM0gO3ZsuQMc5hAkjS-143" vertex="1">
          <mxGeometry relative="1" as="geometry" />
        </mxCell>
        <UserObject label="Drop course" lucidchartObjectId="MKb8qUOhh~k1" id="j4JM0gO3ZsuQMc5hAkjS-145">
          <mxCell style="html=1;overflow=block;blockSpacing=1;whiteSpace=wrap;ellipse;fontSize=13;spacing=3.8;strokeColor=#3a414a;strokeOpacity=100;rounded=1;absoluteArcSize=1;arcSize=9;strokeWidth=0.8;" parent="WIyWlLk6GJQsqaUBKTNV-1" vertex="1">
            <mxGeometry x="405" y="975" width="120" height="90" as="geometry" />
          </mxCell>
        </UserObject>
        <UserObject label="Add enrollment" lucidchartObjectId="ALb8cT1fnPmX" id="j4JM0gO3ZsuQMc5hAkjS-146">
          <mxCell style="html=1;overflow=block;blockSpacing=1;whiteSpace=wrap;ellipse;fontSize=13;spacing=3.8;strokeColor=#3a414a;strokeOpacity=100;rounded=1;absoluteArcSize=1;arcSize=9;strokeWidth=0.8;" parent="WIyWlLk6GJQsqaUBKTNV-1" vertex="1">
            <mxGeometry x="225" y="975" width="120" height="90" as="geometry" />
          </mxCell>
        </UserObject>
        <UserObject label="" lucidchartObjectId="XLb8WKQyprOz" id="j4JM0gO3ZsuQMc5hAkjS-147">
          <mxCell style="html=1;jettySize=18;whiteSpace=wrap;fontSize=13;strokeColor=#3a414a;strokeOpacity=100;strokeWidth=0.8;rounded=1;arcSize=12;edgeStyle=orthogonalEdgeStyle;startArrow=none;endArrow=block;endFill=0;endSize=12;exitX=0.5;exitY=-0.004;exitPerimeter=0;entryX=0.5;entryY=1.004;entryPerimeter=0;" parent="WIyWlLk6GJQsqaUBKTNV-1" source="j4JM0gO3ZsuQMc5hAkjS-146" target="j4JM0gO3ZsuQMc5hAkjS-134" edge="1">
            <mxGeometry width="100" height="100" relative="1" as="geometry">
              <Array as="points" />
            </mxGeometry>
          </mxCell>
        </UserObject>
        <UserObject label="" lucidchartObjectId="2Lb8IPs-CWP9" id="j4JM0gO3ZsuQMc5hAkjS-148">
          <mxCell style="html=1;jettySize=18;whiteSpace=wrap;fontSize=13;strokeColor=#3a414a;strokeOpacity=100;strokeWidth=0.8;rounded=1;arcSize=12;edgeStyle=orthogonalEdgeStyle;startArrow=none;endArrow=block;endFill=0;endSize=12;exitX=0.5;exitY=-0.004;exitPerimeter=0;entryX=0.5;entryY=1.004;entryPerimeter=0;" parent="WIyWlLk6GJQsqaUBKTNV-1" source="j4JM0gO3ZsuQMc5hAkjS-145" target="j4JM0gO3ZsuQMc5hAkjS-134" edge="1">
            <mxGeometry width="100" height="100" relative="1" as="geometry">
              <Array as="points" />
            </mxGeometry>
          </mxCell>
        </UserObject>
        <UserObject label="" lucidchartObjectId="qQb8BGeMHkN9" id="j4JM0gO3ZsuQMc5hAkjS-149">
          <mxCell style="html=1;jettySize=18;whiteSpace=wrap;fontSize=13;strokeColor=#3a414a;strokeOpacity=100;dashed=1;fixDash=1;strokeWidth=0.8;rounded=0;startArrow=none;endArrow=open;exitX=0.5;exitY=1.004;exitPerimeter=0;entryX=0.5;entryY=-0.004;entryPerimeter=0;" parent="WIyWlLk6GJQsqaUBKTNV-1" source="j4JM0gO3ZsuQMc5hAkjS-146" target="j4JM0gO3ZsuQMc5hAkjS-153" edge="1">
            <mxGeometry width="100" height="100" relative="1" as="geometry">
              <Array as="points" />
            </mxGeometry>
          </mxCell>
        </UserObject>
        <mxCell id="j4JM0gO3ZsuQMc5hAkjS-150" value="&amp;lt;&amp;lt;Include&amp;gt;&amp;gt;" style="text;html=1;resizable=0;labelBackgroundColor=default;align=center;verticalAlign=middle;fontStyle=1;fontColor=#333333;fontSize=13.3;" parent="j4JM0gO3ZsuQMc5hAkjS-149" vertex="1">
          <mxGeometry relative="1" as="geometry" />
        </mxCell>
        <UserObject label="" lucidchartObjectId="MRb8K9akw81G" id="j4JM0gO3ZsuQMc5hAkjS-151">
          <mxCell style="html=1;jettySize=18;whiteSpace=wrap;fontSize=13;strokeColor=#3a414a;strokeOpacity=100;dashed=1;fixDash=1;strokeWidth=0.8;rounded=0;startArrow=none;endArrow=open;exitX=0.5;exitY=1.004;exitPerimeter=0;entryX=0.5;entryY=-0.004;entryPerimeter=0;" parent="WIyWlLk6GJQsqaUBKTNV-1" source="j4JM0gO3ZsuQMc5hAkjS-145" target="j4JM0gO3ZsuQMc5hAkjS-153" edge="1">
            <mxGeometry width="100" height="100" relative="1" as="geometry">
              <Array as="points" />
            </mxGeometry>
          </mxCell>
        </UserObject>
        <mxCell id="j4JM0gO3ZsuQMc5hAkjS-152" value="&amp;lt;&amp;lt;Include&amp;gt;&amp;gt;" style="text;html=1;resizable=0;labelBackgroundColor=default;align=center;verticalAlign=middle;fontStyle=1;fontColor=#333333;fontSize=13.3;" parent="j4JM0gO3ZsuQMc5hAkjS-151" vertex="1">
          <mxGeometry relative="1" as="geometry" />
        </mxCell>
        <UserObject label="Input semester" lucidchartObjectId="~Ub8aFgRyCHm" id="j4JM0gO3ZsuQMc5hAkjS-153">
          <mxCell style="html=1;overflow=block;blockSpacing=1;whiteSpace=wrap;ellipse;fontSize=13;spacing=3.8;strokeColor=#3a414a;strokeOpacity=100;rounded=1;absoluteArcSize=1;arcSize=9;strokeWidth=0.8;" parent="WIyWlLk6GJQsqaUBKTNV-1" vertex="1">
            <mxGeometry x="315" y="1125" width="120" height="90" as="geometry" />
          </mxCell>
        </UserObject>
        <UserObject label="Display semester is not exist" lucidchartObjectId="iVb8tdqWyqkG" id="j4JM0gO3ZsuQMc5hAkjS-154">
          <mxCell style="html=1;overflow=block;blockSpacing=1;whiteSpace=wrap;ellipse;fontSize=13;spacing=3.8;strokeColor=#3a414a;strokeOpacity=100;rounded=1;absoluteArcSize=1;arcSize=9;strokeWidth=0.8;" parent="WIyWlLk6GJQsqaUBKTNV-1" vertex="1">
            <mxGeometry x="120" y="1200" width="120" height="90" as="geometry" />
          </mxCell>
        </UserObject>
        <UserObject label="Check if semester exist" lucidchartObjectId="mVb8WjVg645l" id="j4JM0gO3ZsuQMc5hAkjS-155">
          <mxCell style="html=1;overflow=block;blockSpacing=1;whiteSpace=wrap;ellipse;fontSize=13;spacing=0;strokeColor=#3a414a;strokeOpacity=100;rounded=1;absoluteArcSize=1;arcSize=9;strokeWidth=0.8;" parent="WIyWlLk6GJQsqaUBKTNV-1" vertex="1">
            <mxGeometry x="300" y="1275" width="150" height="120" as="geometry" />
          </mxCell>
        </UserObject>
        <UserObject label="" lucidchartObjectId="5Vb85NPMmPPH" id="j4JM0gO3ZsuQMc5hAkjS-156">
          <mxCell style="html=1;jettySize=18;whiteSpace=wrap;fontSize=13;strokeColor=#3a414a;strokeOpacity=100;dashed=1;fixDash=1;strokeWidth=0.8;rounded=0;startArrow=none;endArrow=open;exitX=1.003;exitY=0.5;exitPerimeter=0;entryX=-0.003;entryY=0.5;entryPerimeter=0;" parent="WIyWlLk6GJQsqaUBKTNV-1" source="j4JM0gO3ZsuQMc5hAkjS-154" target="j4JM0gO3ZsuQMc5hAkjS-155" edge="1">
            <mxGeometry width="100" height="100" relative="1" as="geometry">
              <Array as="points" />
            </mxGeometry>
          </mxCell>
        </UserObject>
        <mxCell id="j4JM0gO3ZsuQMc5hAkjS-157" value="&amp;lt;&amp;lt;Extend&amp;gt;&amp;gt;" style="text;html=1;resizable=0;labelBackgroundColor=default;align=center;verticalAlign=middle;fontStyle=1;fontColor=#333333;fontSize=13.3;" parent="j4JM0gO3ZsuQMc5hAkjS-156" vertex="1">
          <mxGeometry relative="1" as="geometry" />
        </mxCell>
        <UserObject label="" lucidchartObjectId="tWb81G1GZtXc" id="j4JM0gO3ZsuQMc5hAkjS-158">
          <mxCell style="html=1;jettySize=18;whiteSpace=wrap;fontSize=13;strokeColor=#3a414a;strokeOpacity=100;dashed=1;fixDash=1;strokeWidth=0.8;rounded=0;startArrow=none;endArrow=open;exitX=0.5;exitY=1.004;exitPerimeter=0;entryX=0.5;entryY=-0.003;entryPerimeter=0;" parent="WIyWlLk6GJQsqaUBKTNV-1" source="j4JM0gO3ZsuQMc5hAkjS-153" target="j4JM0gO3ZsuQMc5hAkjS-155" edge="1">
            <mxGeometry width="100" height="100" relative="1" as="geometry">
              <Array as="points" />
            </mxGeometry>
          </mxCell>
        </UserObject>
        <mxCell id="j4JM0gO3ZsuQMc5hAkjS-159" value="&amp;lt;&amp;lt;Include&amp;gt;&amp;gt;" style="text;html=1;resizable=0;labelBackgroundColor=default;align=center;verticalAlign=middle;fontStyle=1;fontColor=#333333;fontSize=13.3;" parent="j4JM0gO3ZsuQMc5hAkjS-158" vertex="1">
          <mxGeometry relative="1" as="geometry" />
        </mxCell>
        <mxCell id="j4JM0gO3ZsuQMc5hAkjS-185" value="" style="edgeStyle=none;rounded=0;orthogonalLoop=1;jettySize=auto;html=1;dashed=1;endArrow=open;endFill=0;" parent="WIyWlLk6GJQsqaUBKTNV-1" source="j4JM0gO3ZsuQMc5hAkjS-160" target="j4JM0gO3ZsuQMc5hAkjS-168" edge="1">
          <mxGeometry relative="1" as="geometry" />
        </mxCell>
        <UserObject label="Display valid semester" lucidchartObjectId="3Xb82bU-oSFI" id="j4JM0gO3ZsuQMc5hAkjS-160">
          <mxCell style="html=1;overflow=block;blockSpacing=1;whiteSpace=wrap;ellipse;fontSize=13;spacing=3.8;strokeColor=#3a414a;strokeOpacity=100;rounded=1;absoluteArcSize=1;arcSize=9;strokeWidth=0.8;" parent="WIyWlLk6GJQsqaUBKTNV-1" vertex="1">
            <mxGeometry x="570" y="1290" width="120" height="90" as="geometry" />
          </mxCell>
        </UserObject>
        <UserObject label="" lucidchartObjectId="bYb8xyXC3pWu" id="j4JM0gO3ZsuQMc5hAkjS-161">
          <mxCell style="html=1;jettySize=18;whiteSpace=wrap;fontSize=13;strokeColor=#3a414a;strokeOpacity=100;dashed=1;fixDash=1;strokeWidth=0.8;rounded=0;startArrow=none;endArrow=open;exitX=1.003;exitY=0.5;exitPerimeter=0;entryX=-0.003;entryY=0.5;entryPerimeter=0;" parent="WIyWlLk6GJQsqaUBKTNV-1" source="j4JM0gO3ZsuQMc5hAkjS-155" target="j4JM0gO3ZsuQMc5hAkjS-160" edge="1">
            <mxGeometry width="100" height="100" relative="1" as="geometry">
              <Array as="points" />
            </mxGeometry>
          </mxCell>
        </UserObject>
        <mxCell id="j4JM0gO3ZsuQMc5hAkjS-162" value="&amp;lt;&amp;lt;Include&amp;gt;&amp;gt;" style="text;html=1;resizable=0;labelBackgroundColor=default;align=center;verticalAlign=middle;fontStyle=1;fontColor=#333333;fontSize=13.3;" parent="j4JM0gO3ZsuQMc5hAkjS-161" vertex="1">
          <mxGeometry x="-0.14609110141610948" relative="1" as="geometry" />
        </mxCell>
        <UserObject label="Select exit" lucidchartObjectId="_0b8lDhi4JuW" id="j4JM0gO3ZsuQMc5hAkjS-163">
          <mxCell style="html=1;overflow=block;blockSpacing=1;whiteSpace=wrap;ellipse;fontSize=13;spacing=3.8;strokeColor=#3a414a;strokeOpacity=100;rounded=1;absoluteArcSize=1;arcSize=9;strokeWidth=0.8;" parent="WIyWlLk6GJQsqaUBKTNV-1" vertex="1">
            <mxGeometry x="570" y="1125" width="120" height="90" as="geometry" />
          </mxCell>
        </UserObject>
        <UserObject label="" lucidchartObjectId="l1b8Ks-75G7R" id="j4JM0gO3ZsuQMc5hAkjS-164">
          <mxCell style="html=1;jettySize=18;whiteSpace=wrap;fontSize=13;strokeColor=#3a414a;strokeOpacity=100;dashed=1;fixDash=1;strokeWidth=0.8;rounded=0;startArrow=none;endArrow=open;exitX=1.003;exitY=0.5;exitPerimeter=0;entryX=-0.003;entryY=0.5;entryPerimeter=0;" parent="WIyWlLk6GJQsqaUBKTNV-1" source="j4JM0gO3ZsuQMc5hAkjS-153" target="j4JM0gO3ZsuQMc5hAkjS-163" edge="1">
            <mxGeometry width="100" height="100" relative="1" as="geometry">
              <Array as="points" />
            </mxGeometry>
          </mxCell>
        </UserObject>
        <mxCell id="j4JM0gO3ZsuQMc5hAkjS-165" value="&amp;lt;&amp;lt;Include&amp;gt;&amp;gt;" style="text;html=1;resizable=0;labelBackgroundColor=default;align=center;verticalAlign=middle;fontStyle=1;fontColor=#333333;fontSize=13.3;" parent="j4JM0gO3ZsuQMc5hAkjS-164" vertex="1">
          <mxGeometry relative="1" as="geometry" />
        </mxCell>
        <UserObject label="" lucidchartObjectId="X1b8XJU7wJw~" id="j4JM0gO3ZsuQMc5hAkjS-166">
          <mxCell style="html=1;jettySize=18;whiteSpace=wrap;fontSize=13;strokeColor=#3a414a;strokeOpacity=100;dashed=1;fixDash=1;strokeWidth=0.8;rounded=0;startArrow=none;endArrow=open;exitX=0.5;exitY=-0.004;exitPerimeter=0;entryX=0.5;entryY=1.004;entryPerimeter=0;" parent="WIyWlLk6GJQsqaUBKTNV-1" source="j4JM0gO3ZsuQMc5hAkjS-160" target="j4JM0gO3ZsuQMc5hAkjS-163" edge="1">
            <mxGeometry width="100" height="100" relative="1" as="geometry">
              <Array as="points" />
            </mxGeometry>
          </mxCell>
        </UserObject>
        <mxCell id="j4JM0gO3ZsuQMc5hAkjS-167" value="&amp;lt;&amp;lt;Include&amp;gt;&amp;gt;" style="text;html=1;resizable=0;labelBackgroundColor=default;align=center;verticalAlign=middle;fontStyle=1;fontColor=#333333;fontSize=13.3;" parent="j4JM0gO3ZsuQMc5hAkjS-166" vertex="1">
          <mxGeometry relative="1" as="geometry" />
        </mxCell>
        <UserObject label="Input student ID" lucidchartObjectId="G2b8h_VOFrGW" id="j4JM0gO3ZsuQMc5hAkjS-168">
          <mxCell style="html=1;overflow=block;blockSpacing=1;whiteSpace=wrap;ellipse;fontSize=13;spacing=3.8;strokeColor=#3a414a;strokeOpacity=100;rounded=1;absoluteArcSize=1;arcSize=9;strokeWidth=0.8;" parent="WIyWlLk6GJQsqaUBKTNV-1" vertex="1">
            <mxGeometry x="570" y="1425" width="120" height="90" as="geometry" />
          </mxCell>
        </UserObject>
        <UserObject label="" lucidchartObjectId="_3b8UhAphatW" id="j4JM0gO3ZsuQMc5hAkjS-169">
          <mxCell style="html=1;jettySize=18;whiteSpace=wrap;fontSize=13;strokeColor=#3a414a;strokeOpacity=100;dashed=1;fixDash=1;strokeWidth=0.8;rounded=0;startArrow=none;endArrow=open;exitX=0.5;exitY=1.004;exitPerimeter=0;entryX=0.5;entryY=-0.004;entryPerimeter=0;" parent="WIyWlLk6GJQsqaUBKTNV-1" source="j4JM0gO3ZsuQMc5hAkjS-160" target="j4JM0gO3ZsuQMc5hAkjS-168" edge="1">
            <mxGeometry width="100" height="100" relative="1" as="geometry">
              <Array as="points" />
            </mxGeometry>
          </mxCell>
        </UserObject>
        <mxCell id="j4JM0gO3ZsuQMc5hAkjS-170" value="&amp;lt;&amp;lt;Include&amp;gt;&amp;gt;" style="text;html=1;resizable=0;labelBackgroundColor=default;align=center;verticalAlign=middle;fontStyle=1;fontColor=#333333;fontSize=13.3;" parent="j4JM0gO3ZsuQMc5hAkjS-169" vertex="1">
          <mxGeometry relative="1" as="geometry" />
        </mxCell>
        <UserObject label="Check if student exist" lucidchartObjectId="X4b8GpO_1fZh" id="j4JM0gO3ZsuQMc5hAkjS-171">
          <mxCell style="html=1;overflow=block;blockSpacing=1;whiteSpace=wrap;ellipse;fontSize=13;spacing=0;strokeColor=#3a414a;strokeOpacity=100;rounded=1;absoluteArcSize=1;arcSize=9;strokeWidth=0.8;" parent="WIyWlLk6GJQsqaUBKTNV-1" vertex="1">
            <mxGeometry x="555" y="1560" width="150" height="120" as="geometry" />
          </mxCell>
        </UserObject>
        <UserObject label="" lucidchartObjectId="h5b8EaZICANA" id="j4JM0gO3ZsuQMc5hAkjS-172">
          <mxCell style="html=1;jettySize=18;whiteSpace=wrap;fontSize=13;strokeColor=#3a414a;strokeOpacity=100;dashed=1;fixDash=1;strokeWidth=0.8;rounded=0;startArrow=none;endArrow=open;exitX=0.5;exitY=1.004;exitPerimeter=0;entryX=0.5;entryY=-0.003;entryPerimeter=0;" parent="WIyWlLk6GJQsqaUBKTNV-1" source="j4JM0gO3ZsuQMc5hAkjS-168" target="j4JM0gO3ZsuQMc5hAkjS-171" edge="1">
            <mxGeometry width="100" height="100" relative="1" as="geometry">
              <Array as="points" />
            </mxGeometry>
          </mxCell>
        </UserObject>
        <mxCell id="j4JM0gO3ZsuQMc5hAkjS-173" value="&amp;lt;&amp;lt;Include&amp;gt;&amp;gt;" style="text;html=1;resizable=0;labelBackgroundColor=default;align=center;verticalAlign=middle;fontStyle=1;fontColor=#333333;fontSize=13.3;" parent="j4JM0gO3ZsuQMc5hAkjS-172" vertex="1">
          <mxGeometry x="-0.15968315903658348" relative="1" as="geometry" />
        </mxCell>
        <UserObject label="Display student is not exist" lucidchartObjectId="L5b8oFwx1gWe" id="j4JM0gO3ZsuQMc5hAkjS-174">
          <mxCell style="html=1;overflow=block;blockSpacing=1;whiteSpace=wrap;ellipse;fontSize=13;spacing=3.8;strokeColor=#3a414a;strokeOpacity=100;rounded=1;absoluteArcSize=1;arcSize=9;strokeWidth=0.8;" parent="WIyWlLk6GJQsqaUBKTNV-1" vertex="1">
            <mxGeometry x="330" y="1500" width="120" height="90" as="geometry" />
          </mxCell>
        </UserObject>
        <UserObject label="" lucidchartObjectId="L5b8UTUakp6x" id="j4JM0gO3ZsuQMc5hAkjS-175">
          <mxCell style="html=1;jettySize=18;whiteSpace=wrap;fontSize=13;strokeColor=#3a414a;strokeOpacity=100;dashed=1;fixDash=1;strokeWidth=0.8;rounded=0;startArrow=none;endArrow=open;exitX=1.003;exitY=0.5;exitPerimeter=0;entryX=-0.003;entryY=0.5;entryPerimeter=0;" parent="WIyWlLk6GJQsqaUBKTNV-1" source="j4JM0gO3ZsuQMc5hAkjS-174" target="j4JM0gO3ZsuQMc5hAkjS-171" edge="1">
            <mxGeometry width="100" height="100" relative="1" as="geometry">
              <Array as="points" />
            </mxGeometry>
          </mxCell>
        </UserObject>
        <mxCell id="j4JM0gO3ZsuQMc5hAkjS-176" value="&amp;lt;&amp;lt;Extend&amp;gt;&amp;gt;" style="text;html=1;resizable=0;labelBackgroundColor=default;align=center;verticalAlign=middle;fontStyle=1;fontColor=#333333;fontSize=13.3;" parent="j4JM0gO3ZsuQMc5hAkjS-175" vertex="1">
          <mxGeometry relative="1" as="geometry" />
        </mxCell>
        <mxCell id="j4JM0gO3ZsuQMc5hAkjS-183" style="edgeStyle=none;rounded=0;orthogonalLoop=1;jettySize=auto;html=1;entryX=0.5;entryY=1;entryDx=0;entryDy=0;dashed=1;endArrow=open;endFill=0;" parent="WIyWlLk6GJQsqaUBKTNV-1" source="j4JM0gO3ZsuQMc5hAkjS-177" target="j4JM0gO3ZsuQMc5hAkjS-180" edge="1">
          <mxGeometry relative="1" as="geometry" />
        </mxCell>
        <mxCell id="j4JM0gO3ZsuQMc5hAkjS-184" value="&amp;lt;&amp;lt;Include&amp;gt;&amp;gt;" style="edgeLabel;html=1;align=center;verticalAlign=middle;resizable=0;points=[];" parent="j4JM0gO3ZsuQMc5hAkjS-183" vertex="1" connectable="0">
          <mxGeometry x="0.0333" relative="1" as="geometry">
            <mxPoint as="offset" />
          </mxGeometry>
        </mxCell>
        <UserObject label="Display valid student" lucidchartObjectId="75b85DZoOAz7" id="j4JM0gO3ZsuQMc5hAkjS-177">
          <mxCell style="html=1;overflow=block;blockSpacing=1;whiteSpace=wrap;ellipse;fontSize=13;spacing=3.8;strokeColor=#3a414a;strokeOpacity=100;rounded=1;absoluteArcSize=1;arcSize=9;strokeWidth=0.8;" parent="WIyWlLk6GJQsqaUBKTNV-1" vertex="1">
            <mxGeometry x="810" y="1560" width="120" height="90" as="geometry" />
          </mxCell>
        </UserObject>
        <UserObject label="" lucidchartObjectId="h6b8DXPas1rn" id="j4JM0gO3ZsuQMc5hAkjS-178">
          <mxCell style="html=1;jettySize=18;whiteSpace=wrap;fontSize=13;strokeColor=#3a414a;strokeOpacity=100;dashed=1;fixDash=1;strokeWidth=0.8;rounded=0;startArrow=none;endArrow=open;exitX=1.003;exitY=0.5;exitPerimeter=0;entryX=-0.003;entryY=0.5;entryPerimeter=0;" parent="WIyWlLk6GJQsqaUBKTNV-1" source="j4JM0gO3ZsuQMc5hAkjS-171" target="j4JM0gO3ZsuQMc5hAkjS-177" edge="1">
            <mxGeometry width="100" height="100" relative="1" as="geometry">
              <Array as="points" />
            </mxGeometry>
          </mxCell>
        </UserObject>
        <mxCell id="j4JM0gO3ZsuQMc5hAkjS-179" value="&amp;lt;&amp;lt;Include&amp;gt;&amp;gt;" style="text;html=1;resizable=0;labelBackgroundColor=default;align=center;verticalAlign=middle;fontStyle=1;fontColor=#333333;fontSize=13.3;" parent="j4JM0gO3ZsuQMc5hAkjS-178" vertex="1">
          <mxGeometry x="-0.19976131042641299" relative="1" as="geometry" />
        </mxCell>
        <mxCell id="j4JM0gO3ZsuQMc5hAkjS-181" style="rounded=0;orthogonalLoop=1;jettySize=auto;html=1;entryX=1;entryY=1;entryDx=0;entryDy=0;dashed=1;endArrow=open;endFill=0;" parent="WIyWlLk6GJQsqaUBKTNV-1" source="j4JM0gO3ZsuQMc5hAkjS-180" target="j4JM0gO3ZsuQMc5hAkjS-163" edge="1">
          <mxGeometry relative="1" as="geometry" />
        </mxCell>
        <mxCell id="j4JM0gO3ZsuQMc5hAkjS-182" value="&amp;lt;&amp;lt;Include&amp;gt;&amp;gt;" style="edgeLabel;html=1;align=center;verticalAlign=middle;resizable=0;points=[];fontSize=13.3;" parent="j4JM0gO3ZsuQMc5hAkjS-181" vertex="1" connectable="0">
          <mxGeometry x="0.0027" y="2" relative="1" as="geometry">
            <mxPoint as="offset" />
          </mxGeometry>
        </mxCell>
        <mxCell id="j4JM0gO3ZsuQMc5hAkjS-187" style="edgeStyle=none;rounded=0;orthogonalLoop=1;jettySize=auto;html=1;entryX=0.5;entryY=1;entryDx=0;entryDy=0;dashed=1;fontSize=13.3;endArrow=open;endFill=0;" parent="WIyWlLk6GJQsqaUBKTNV-1" source="j4JM0gO3ZsuQMc5hAkjS-180" target="j4JM0gO3ZsuQMc5hAkjS-186" edge="1">
          <mxGeometry relative="1" as="geometry" />
        </mxCell>
        <mxCell id="j4JM0gO3ZsuQMc5hAkjS-188" value="&amp;lt;&amp;lt;Include&amp;gt;&amp;gt;" style="edgeLabel;html=1;align=center;verticalAlign=middle;resizable=0;points=[];fontSize=13.3;" parent="j4JM0gO3ZsuQMc5hAkjS-187" vertex="1" connectable="0">
          <mxGeometry x="-0.1333" y="1" relative="1" as="geometry">
            <mxPoint as="offset" />
          </mxGeometry>
        </mxCell>
        <UserObject label="Input Course ID" lucidchartObjectId="75b85DZoOAz7" id="j4JM0gO3ZsuQMc5hAkjS-180">
          <mxCell style="html=1;overflow=block;blockSpacing=1;whiteSpace=wrap;ellipse;fontSize=13;spacing=3.8;strokeColor=#3a414a;strokeOpacity=100;rounded=1;absoluteArcSize=1;arcSize=9;strokeWidth=0.8;" parent="WIyWlLk6GJQsqaUBKTNV-1" vertex="1">
            <mxGeometry x="810" y="1425" width="120" height="90" as="geometry" />
          </mxCell>
        </UserObject>
        <mxCell id="j4JM0gO3ZsuQMc5hAkjS-193" style="edgeStyle=none;rounded=0;orthogonalLoop=1;jettySize=auto;html=1;exitX=0.5;exitY=0;exitDx=0;exitDy=0;entryX=0.5;entryY=1;entryDx=0;entryDy=0;dashed=1;fontSize=13.3;endArrow=open;endFill=0;" parent="WIyWlLk6GJQsqaUBKTNV-1" source="j4JM0gO3ZsuQMc5hAkjS-186" target="j4JM0gO3ZsuQMc5hAkjS-192" edge="1">
          <mxGeometry relative="1" as="geometry" />
        </mxCell>
        <mxCell id="j4JM0gO3ZsuQMc5hAkjS-194" value="&amp;lt;&amp;lt;Include&amp;gt;&amp;gt;" style="edgeLabel;html=1;align=center;verticalAlign=middle;resizable=0;points=[];fontSize=13.3;" parent="j4JM0gO3ZsuQMc5hAkjS-193" vertex="1" connectable="0">
          <mxGeometry x="-0.1273" y="-1" relative="1" as="geometry">
            <mxPoint as="offset" />
          </mxGeometry>
        </mxCell>
        <UserObject label="Check course exist" lucidchartObjectId="75b85DZoOAz7" id="j4JM0gO3ZsuQMc5hAkjS-186">
          <mxCell style="html=1;overflow=block;blockSpacing=1;whiteSpace=wrap;ellipse;fontSize=13;spacing=3.8;strokeColor=#3a414a;strokeOpacity=100;rounded=1;absoluteArcSize=1;arcSize=9;strokeWidth=0.8;" parent="WIyWlLk6GJQsqaUBKTNV-1" vertex="1">
            <mxGeometry x="810" y="1275" width="120" height="90" as="geometry" />
          </mxCell>
        </UserObject>
        <UserObject label="Display course is not exist" lucidchartObjectId="L5b8oFwx1gWe" id="j4JM0gO3ZsuQMc5hAkjS-189">
          <mxCell style="html=1;overflow=block;blockSpacing=1;whiteSpace=wrap;ellipse;fontSize=13;spacing=3.8;strokeColor=#3a414a;strokeOpacity=100;rounded=1;absoluteArcSize=1;arcSize=9;strokeWidth=0.8;" parent="WIyWlLk6GJQsqaUBKTNV-1" vertex="1">
            <mxGeometry x="990" y="1410" width="120" height="90" as="geometry" />
          </mxCell>
        </UserObject>
        <UserObject label="" lucidchartObjectId="L5b8UTUakp6x" id="j4JM0gO3ZsuQMc5hAkjS-190">
          <mxCell style="html=1;jettySize=18;whiteSpace=wrap;fontSize=13;strokeColor=#3a414a;strokeOpacity=100;dashed=1;fixDash=1;strokeWidth=0.8;rounded=0;startArrow=none;endArrow=open;exitX=0;exitY=0.5;entryX=1;entryY=0.5;entryDx=0;entryDy=0;exitDx=0;exitDy=0;" parent="WIyWlLk6GJQsqaUBKTNV-1" source="j4JM0gO3ZsuQMc5hAkjS-189" target="j4JM0gO3ZsuQMc5hAkjS-186" edge="1">
            <mxGeometry width="100" height="100" relative="1" as="geometry">
              <Array as="points" />
              <mxPoint x="1214.55" y="1440" as="targetPoint" />
            </mxGeometry>
          </mxCell>
        </UserObject>
        <mxCell id="j4JM0gO3ZsuQMc5hAkjS-191" value="&amp;lt;&amp;lt;Extend&amp;gt;&amp;gt;" style="text;html=1;resizable=0;labelBackgroundColor=default;align=center;verticalAlign=middle;fontStyle=1;fontColor=#333333;fontSize=13.3;" parent="j4JM0gO3ZsuQMc5hAkjS-190" vertex="1">
          <mxGeometry relative="1" as="geometry" />
        </mxCell>
        <mxCell id="j4JM0gO3ZsuQMc5hAkjS-197" style="edgeStyle=none;rounded=0;orthogonalLoop=1;jettySize=auto;html=1;exitX=0.5;exitY=0;exitDx=0;exitDy=0;entryX=0.5;entryY=1;entryDx=0;entryDy=0;dashed=1;fontSize=13.3;endArrow=open;endFill=0;" parent="WIyWlLk6GJQsqaUBKTNV-1" source="j4JM0gO3ZsuQMc5hAkjS-192" target="j4JM0gO3ZsuQMc5hAkjS-196" edge="1">
          <mxGeometry relative="1" as="geometry" />
        </mxCell>
        <mxCell id="j4JM0gO3ZsuQMc5hAkjS-198" value="&amp;lt;&amp;lt;Include&amp;gt;&amp;gt;" style="edgeLabel;html=1;align=center;verticalAlign=middle;resizable=0;points=[];fontSize=13.3;" parent="j4JM0gO3ZsuQMc5hAkjS-197" vertex="1" connectable="0">
          <mxGeometry x="-0.6" relative="1" as="geometry">
            <mxPoint y="-36" as="offset" />
          </mxGeometry>
        </mxCell>
        <mxCell id="j4JM0gO3ZsuQMc5hAkjS-209" value="&amp;lt;&amp;lt;Include&amp;gt;&amp;gt;" style="edgeStyle=none;rounded=0;orthogonalLoop=1;jettySize=auto;html=1;exitX=0;exitY=0;exitDx=0;exitDy=0;entryX=1;entryY=1;entryDx=0;entryDy=0;dashed=1;fontSize=13.3;endArrow=open;endFill=0;" parent="WIyWlLk6GJQsqaUBKTNV-1" source="j4JM0gO3ZsuQMc5hAkjS-192" target="j4JM0gO3ZsuQMc5hAkjS-208" edge="1">
          <mxGeometry relative="1" as="geometry" />
        </mxCell>
        <UserObject label="Check if enrollment exist" lucidchartObjectId="L5b8oFwx1gWe" id="j4JM0gO3ZsuQMc5hAkjS-192">
          <mxCell style="html=1;overflow=block;blockSpacing=1;whiteSpace=wrap;ellipse;fontSize=13;spacing=3.8;strokeColor=#3a414a;strokeOpacity=100;rounded=1;absoluteArcSize=1;arcSize=9;strokeWidth=0.8;" parent="WIyWlLk6GJQsqaUBKTNV-1" vertex="1">
            <mxGeometry x="810" y="1140" width="120" height="90" as="geometry" />
          </mxCell>
        </UserObject>
        <mxCell id="j4JM0gO3ZsuQMc5hAkjS-206" value="&amp;lt;&amp;lt;Include&amp;gt;&amp;gt;" style="edgeStyle=none;rounded=0;orthogonalLoop=1;jettySize=auto;html=1;exitX=0;exitY=0.5;exitDx=0;exitDy=0;entryX=0.993;entryY=0.611;entryDx=0;entryDy=0;entryPerimeter=0;dashed=1;fontSize=13.3;endArrow=open;endFill=0;" parent="WIyWlLk6GJQsqaUBKTNV-1" source="j4JM0gO3ZsuQMc5hAkjS-196" target="j4JM0gO3ZsuQMc5hAkjS-134" edge="1">
          <mxGeometry relative="1" as="geometry" />
        </mxCell>
        <mxCell id="j4JM0gO3ZsuQMc5hAkjS-207" value="&amp;lt;&amp;lt;Include&amp;gt;&amp;gt;" style="edgeStyle=none;rounded=0;orthogonalLoop=1;jettySize=auto;html=1;entryX=0.5;entryY=1;entryDx=0;entryDy=0;dashed=1;fontSize=13.3;endArrow=open;endFill=0;" parent="WIyWlLk6GJQsqaUBKTNV-1" source="j4JM0gO3ZsuQMc5hAkjS-196" target="j4JM0gO3ZsuQMc5hAkjS-137" edge="1">
          <mxGeometry relative="1" as="geometry" />
        </mxCell>
        <UserObject label="Display add enrollment succeed" lucidchartObjectId="L5b8oFwx1gWe" id="j4JM0gO3ZsuQMc5hAkjS-196">
          <mxCell style="html=1;overflow=block;blockSpacing=1;whiteSpace=wrap;ellipse;fontSize=13;spacing=3.8;strokeColor=#3a414a;strokeOpacity=100;rounded=1;absoluteArcSize=1;arcSize=9;strokeWidth=0.8;" parent="WIyWlLk6GJQsqaUBKTNV-1" vertex="1">
            <mxGeometry x="825" y="930" width="120" height="90" as="geometry" />
          </mxCell>
        </UserObject>
        <UserObject label="Display enrollment is exist" lucidchartObjectId="L5b8oFwx1gWe" id="j4JM0gO3ZsuQMc5hAkjS-199">
          <mxCell style="html=1;overflow=block;blockSpacing=1;whiteSpace=wrap;ellipse;fontSize=13;spacing=3.8;strokeColor=#3a414a;strokeOpacity=100;rounded=1;absoluteArcSize=1;arcSize=9;strokeWidth=0.8;" parent="WIyWlLk6GJQsqaUBKTNV-1" vertex="1">
            <mxGeometry x="990" y="1230" width="120" height="90" as="geometry" />
          </mxCell>
        </UserObject>
        <UserObject label="" lucidchartObjectId="L5b8UTUakp6x" id="j4JM0gO3ZsuQMc5hAkjS-200">
          <mxCell style="html=1;jettySize=18;whiteSpace=wrap;fontSize=13;strokeColor=#3a414a;strokeOpacity=100;dashed=1;fixDash=1;strokeWidth=0.8;rounded=0;startArrow=none;endArrow=open;exitX=0;exitY=0.5;entryX=1;entryY=0.5;entryDx=0;entryDy=0;exitDx=0;exitDy=0;" parent="WIyWlLk6GJQsqaUBKTNV-1" source="j4JM0gO3ZsuQMc5hAkjS-199" target="j4JM0gO3ZsuQMc5hAkjS-192" edge="1">
            <mxGeometry width="100" height="100" relative="1" as="geometry">
              <Array as="points" />
              <mxPoint x="960" y="1160" as="targetPoint" />
            </mxGeometry>
          </mxCell>
        </UserObject>
        <mxCell id="j4JM0gO3ZsuQMc5hAkjS-201" value="&amp;lt;&amp;lt;Extend&amp;gt;&amp;gt;" style="text;html=1;resizable=0;labelBackgroundColor=default;align=center;verticalAlign=middle;fontStyle=1;fontColor=#333333;fontSize=13.3;" parent="j4JM0gO3ZsuQMc5hAkjS-200" vertex="1">
          <mxGeometry relative="1" as="geometry" />
        </mxCell>
        <UserObject label="Display drop course succeed" lucidchartObjectId="L5b8oFwx1gWe" id="j4JM0gO3ZsuQMc5hAkjS-208">
          <mxCell style="html=1;overflow=block;blockSpacing=1;whiteSpace=wrap;ellipse;fontSize=13;spacing=3.8;strokeColor=#3a414a;strokeOpacity=100;rounded=1;absoluteArcSize=1;arcSize=9;strokeWidth=0.8;" parent="WIyWlLk6GJQsqaUBKTNV-1" vertex="1">
            <mxGeometry x="630" y="975" width="120" height="90" as="geometry" />
          </mxCell>
        </UserObject>
        <mxCell id="j4JM0gO3ZsuQMc5hAkjS-211" style="edgeStyle=none;rounded=0;orthogonalLoop=1;jettySize=auto;html=1;entryX=0.908;entryY=0.156;entryDx=0;entryDy=0;entryPerimeter=0;dashed=1;fontSize=13.3;endArrow=open;endFill=0;" parent="WIyWlLk6GJQsqaUBKTNV-1" source="j4JM0gO3ZsuQMc5hAkjS-210" target="j4JM0gO3ZsuQMc5hAkjS-192" edge="1">
          <mxGeometry relative="1" as="geometry" />
        </mxCell>
        <mxCell id="j4JM0gO3ZsuQMc5hAkjS-212" value="&amp;lt;&amp;lt;Extend&amp;gt;&amp;gt;" style="edgeLabel;html=1;align=center;verticalAlign=middle;resizable=0;points=[];fontSize=13.3;" parent="j4JM0gO3ZsuQMc5hAkjS-211" vertex="1" connectable="0">
          <mxGeometry x="-0.1758" y="-1" relative="1" as="geometry">
            <mxPoint as="offset" />
          </mxGeometry>
        </mxCell>
        <UserObject label="Display cannot find enrollment" lucidchartObjectId="L5b8oFwx1gWe" id="j4JM0gO3ZsuQMc5hAkjS-210">
          <mxCell style="html=1;overflow=block;blockSpacing=1;whiteSpace=wrap;ellipse;fontSize=13;spacing=3.8;strokeColor=#3a414a;strokeOpacity=100;rounded=1;absoluteArcSize=1;arcSize=9;strokeWidth=0.8;" parent="WIyWlLk6GJQsqaUBKTNV-1" vertex="1">
            <mxGeometry x="1020" y="1000" width="120" height="90" as="geometry" />
          </mxCell>
        </UserObject>
        <mxCell id="XH_TB9dUD3dWwwe9cZGV-5" style="rounded=0;orthogonalLoop=1;jettySize=auto;html=1;endArrow=open;endFill=0;dashed=1;" edge="1" parent="WIyWlLk6GJQsqaUBKTNV-1" source="XH_TB9dUD3dWwwe9cZGV-0" target="XH_TB9dUD3dWwwe9cZGV-1">
          <mxGeometry relative="1" as="geometry" />
        </mxCell>
        <mxCell id="XH_TB9dUD3dWwwe9cZGV-6" value="&amp;lt;&amp;lt;Include&amp;gt;&amp;gt;" style="edgeLabel;html=1;align=center;verticalAlign=middle;resizable=0;points=[];" vertex="1" connectable="0" parent="XH_TB9dUD3dWwwe9cZGV-5">
          <mxGeometry x="-0.2444" y="4" relative="1" as="geometry">
            <mxPoint x="14" y="3" as="offset" />
          </mxGeometry>
        </mxCell>
        <UserObject label="Find student or course" lucidchartObjectId="wDb8d5ZHAHH7" id="XH_TB9dUD3dWwwe9cZGV-0">
          <mxCell style="html=1;overflow=block;blockSpacing=1;whiteSpace=wrap;ellipse;fontSize=13;spacing=3.8;strokeColor=#3a414a;strokeOpacity=100;rounded=1;absoluteArcSize=1;arcSize=9;strokeWidth=0.8;" vertex="1" parent="WIyWlLk6GJQsqaUBKTNV-1">
            <mxGeometry x="180" y="1730" width="165" height="105" as="geometry" />
          </mxCell>
        </UserObject>
        <mxCell id="XH_TB9dUD3dWwwe9cZGV-7" value="&amp;lt;&amp;lt;Include&amp;gt;&amp;gt;" style="edgeStyle=none;rounded=0;orthogonalLoop=1;jettySize=auto;html=1;entryX=0;entryY=0.5;entryDx=0;entryDy=0;dashed=1;endArrow=open;endFill=0;" edge="1" parent="WIyWlLk6GJQsqaUBKTNV-1" source="XH_TB9dUD3dWwwe9cZGV-1" target="XH_TB9dUD3dWwwe9cZGV-2">
          <mxGeometry relative="1" as="geometry" />
        </mxCell>
        <mxCell id="XH_TB9dUD3dWwwe9cZGV-23" style="rounded=0;orthogonalLoop=1;jettySize=auto;html=1;endArrow=openThin;endFill=0;dashed=1;" edge="1" parent="WIyWlLk6GJQsqaUBKTNV-1" source="XH_TB9dUD3dWwwe9cZGV-1" target="XH_TB9dUD3dWwwe9cZGV-3">
          <mxGeometry relative="1" as="geometry" />
        </mxCell>
        <mxCell id="XH_TB9dUD3dWwwe9cZGV-24" value="&amp;lt;&amp;lt;Include&amp;gt;&amp;gt;" style="edgeLabel;html=1;align=center;verticalAlign=middle;resizable=0;points=[];" vertex="1" connectable="0" parent="XH_TB9dUD3dWwwe9cZGV-23">
          <mxGeometry x="-0.0883" relative="1" as="geometry">
            <mxPoint as="offset" />
          </mxGeometry>
        </mxCell>
        <UserObject label="Display options" lucidchartObjectId="wDb8d5ZHAHH7" id="XH_TB9dUD3dWwwe9cZGV-1">
          <mxCell style="html=1;overflow=block;blockSpacing=1;whiteSpace=wrap;ellipse;fontSize=13;spacing=3.8;strokeColor=#3a414a;strokeOpacity=100;rounded=1;absoluteArcSize=1;arcSize=9;strokeWidth=0.8;" vertex="1" parent="WIyWlLk6GJQsqaUBKTNV-1">
            <mxGeometry x="445" y="1730" width="125" height="100" as="geometry" />
          </mxCell>
        </UserObject>
        <UserObject label="Select exit" lucidchartObjectId="wDb8d5ZHAHH7" id="XH_TB9dUD3dWwwe9cZGV-2">
          <mxCell style="html=1;overflow=block;blockSpacing=1;whiteSpace=wrap;ellipse;fontSize=13;spacing=3.8;strokeColor=#3a414a;strokeOpacity=100;rounded=1;absoluteArcSize=1;arcSize=9;strokeWidth=0.8;" vertex="1" parent="WIyWlLk6GJQsqaUBKTNV-1">
            <mxGeometry x="675" y="1730" width="128" height="90" as="geometry" />
          </mxCell>
        </UserObject>
        <UserObject label="Select options" lucidchartObjectId="wDb8d5ZHAHH7" id="XH_TB9dUD3dWwwe9cZGV-3">
          <mxCell style="html=1;overflow=block;blockSpacing=1;whiteSpace=wrap;ellipse;fontSize=13;spacing=3.8;strokeColor=#3a414a;strokeOpacity=100;rounded=1;absoluteArcSize=1;arcSize=9;strokeWidth=0.8;" vertex="1" parent="WIyWlLk6GJQsqaUBKTNV-1">
            <mxGeometry x="427" y="1888.51" width="128" height="90" as="geometry" />
          </mxCell>
        </UserObject>
        <mxCell id="XH_TB9dUD3dWwwe9cZGV-8" style="edgeStyle=none;rounded=0;orthogonalLoop=1;jettySize=auto;html=1;entryX=1;entryY=0.5;entryDx=0;entryDy=0;dashed=1;endArrow=open;endFill=0;" edge="1" parent="WIyWlLk6GJQsqaUBKTNV-1" source="XH_TB9dUD3dWwwe9cZGV-4" target="XH_TB9dUD3dWwwe9cZGV-3">
          <mxGeometry relative="1" as="geometry" />
        </mxCell>
        <mxCell id="XH_TB9dUD3dWwwe9cZGV-11" value="&amp;lt;&amp;lt;Extend&amp;gt;&amp;gt;" style="edgeLabel;html=1;align=center;verticalAlign=middle;resizable=0;points=[];" vertex="1" connectable="0" parent="XH_TB9dUD3dWwwe9cZGV-8">
          <mxGeometry x="0.0941" relative="1" as="geometry">
            <mxPoint x="15" y="-3" as="offset" />
          </mxGeometry>
        </mxCell>
        <mxCell id="XH_TB9dUD3dWwwe9cZGV-9" style="edgeStyle=none;rounded=0;orthogonalLoop=1;jettySize=auto;html=1;entryX=0.5;entryY=1;entryDx=0;entryDy=0;dashed=1;endArrow=open;endFill=0;" edge="1" parent="WIyWlLk6GJQsqaUBKTNV-1" source="XH_TB9dUD3dWwwe9cZGV-4" target="XH_TB9dUD3dWwwe9cZGV-2">
          <mxGeometry relative="1" as="geometry" />
        </mxCell>
        <mxCell id="XH_TB9dUD3dWwwe9cZGV-10" value="&amp;lt;&amp;lt;Extend&amp;gt;&amp;gt;" style="edgeLabel;html=1;align=center;verticalAlign=middle;resizable=0;points=[];" vertex="1" connectable="0" parent="XH_TB9dUD3dWwwe9cZGV-9">
          <mxGeometry x="0.0488" y="-1" relative="1" as="geometry">
            <mxPoint as="offset" />
          </mxGeometry>
        </mxCell>
        <UserObject label="Display invalid option" lucidchartObjectId="wDb8d5ZHAHH7" id="XH_TB9dUD3dWwwe9cZGV-4">
          <mxCell style="html=1;overflow=block;blockSpacing=1;whiteSpace=wrap;ellipse;fontSize=13;spacing=3.8;strokeColor=#3a414a;strokeOpacity=100;rounded=1;absoluteArcSize=1;arcSize=9;strokeWidth=0.8;" vertex="1" parent="WIyWlLk6GJQsqaUBKTNV-1">
            <mxGeometry x="682" y="1898.51" width="128" height="90" as="geometry" />
          </mxCell>
        </UserObject>
        <mxCell id="XH_TB9dUD3dWwwe9cZGV-37" value="&amp;lt;&amp;lt;Include&amp;gt;&amp;gt;" style="edgeStyle=none;rounded=0;orthogonalLoop=1;jettySize=auto;html=1;entryX=0.276;entryY=-0.015;entryDx=0;entryDy=0;entryPerimeter=0;dashed=1;endArrow=openThin;endFill=0;" edge="1" parent="WIyWlLk6GJQsqaUBKTNV-1" source="XH_TB9dUD3dWwwe9cZGV-12" target="XH_TB9dUD3dWwwe9cZGV-27">
          <mxGeometry relative="1" as="geometry" />
        </mxCell>
        <mxCell id="XH_TB9dUD3dWwwe9cZGV-111" style="edgeStyle=orthogonalEdgeStyle;rounded=0;orthogonalLoop=1;jettySize=auto;html=1;entryX=0.5;entryY=1;entryDx=0;entryDy=0;endArrow=block;endFill=0;" edge="1" parent="WIyWlLk6GJQsqaUBKTNV-1" source="XH_TB9dUD3dWwwe9cZGV-12" target="XH_TB9dUD3dWwwe9cZGV-3">
          <mxGeometry relative="1" as="geometry" />
        </mxCell>
        <mxCell id="XH_TB9dUD3dWwwe9cZGV-12" value="View all student in one semester" style="ellipse;whiteSpace=wrap;html=1;" vertex="1" parent="WIyWlLk6GJQsqaUBKTNV-1">
          <mxGeometry x="405" y="2058.51" width="120" height="80" as="geometry" />
        </mxCell>
        <mxCell id="XH_TB9dUD3dWwwe9cZGV-136" style="edgeStyle=none;rounded=0;orthogonalLoop=1;jettySize=auto;html=1;dashed=1;endArrow=open;endFill=0;" edge="1" parent="WIyWlLk6GJQsqaUBKTNV-1" source="XH_TB9dUD3dWwwe9cZGV-13" target="XH_TB9dUD3dWwwe9cZGV-27">
          <mxGeometry relative="1" as="geometry" />
        </mxCell>
        <mxCell id="XH_TB9dUD3dWwwe9cZGV-137" value="&amp;lt;&amp;lt;Include&amp;gt;&amp;gt;" style="edgeLabel;html=1;align=center;verticalAlign=middle;resizable=0;points=[];" vertex="1" connectable="0" parent="XH_TB9dUD3dWwwe9cZGV-136">
          <mxGeometry x="-0.3823" y="3" relative="1" as="geometry">
            <mxPoint as="offset" />
          </mxGeometry>
        </mxCell>
        <mxCell id="XH_TB9dUD3dWwwe9cZGV-139" style="edgeStyle=orthogonalEdgeStyle;rounded=0;orthogonalLoop=1;jettySize=auto;html=1;entryX=0.5;entryY=1;entryDx=0;entryDy=0;endArrow=block;endFill=0;" edge="1" parent="WIyWlLk6GJQsqaUBKTNV-1" source="XH_TB9dUD3dWwwe9cZGV-13" target="XH_TB9dUD3dWwwe9cZGV-3">
          <mxGeometry relative="1" as="geometry">
            <Array as="points">
              <mxPoint x="800" y="2020" />
              <mxPoint x="491" y="2020" />
            </Array>
          </mxGeometry>
        </mxCell>
        <mxCell id="XH_TB9dUD3dWwwe9cZGV-13" value="View all course available in semester" style="ellipse;whiteSpace=wrap;html=1;" vertex="1" parent="WIyWlLk6GJQsqaUBKTNV-1">
          <mxGeometry x="740" y="2058.51" width="120" height="80" as="geometry" />
        </mxCell>
        <mxCell id="XH_TB9dUD3dWwwe9cZGV-16" style="edgeStyle=orthogonalEdgeStyle;rounded=0;orthogonalLoop=1;jettySize=auto;html=1;endArrow=block;endFill=0;" edge="1" parent="WIyWlLk6GJQsqaUBKTNV-1" source="XH_TB9dUD3dWwwe9cZGV-14" target="XH_TB9dUD3dWwwe9cZGV-3">
          <mxGeometry relative="1" as="geometry">
            <Array as="points">
              <mxPoint x="300" y="2018.51" />
              <mxPoint x="491" y="2018.51" />
            </Array>
          </mxGeometry>
        </mxCell>
        <mxCell id="XH_TB9dUD3dWwwe9cZGV-30" style="edgeStyle=none;rounded=0;orthogonalLoop=1;jettySize=auto;html=1;entryX=0.5;entryY=0;entryDx=0;entryDy=0;dashed=1;endArrow=openThin;endFill=0;" edge="1" parent="WIyWlLk6GJQsqaUBKTNV-1" source="XH_TB9dUD3dWwwe9cZGV-14" target="XH_TB9dUD3dWwwe9cZGV-21">
          <mxGeometry relative="1" as="geometry" />
        </mxCell>
        <mxCell id="XH_TB9dUD3dWwwe9cZGV-146" value="&amp;lt;&amp;lt;Include&amp;gt;&amp;gt;" style="edgeLabel;html=1;align=center;verticalAlign=middle;resizable=0;points=[];" vertex="1" connectable="0" parent="XH_TB9dUD3dWwwe9cZGV-30">
          <mxGeometry x="-0.1875" relative="1" as="geometry">
            <mxPoint as="offset" />
          </mxGeometry>
        </mxCell>
        <mxCell id="XH_TB9dUD3dWwwe9cZGV-14" value="View 1 student in 1 semester" style="ellipse;whiteSpace=wrap;html=1;" vertex="1" parent="WIyWlLk6GJQsqaUBKTNV-1">
          <mxGeometry x="240" y="2058.51" width="120" height="80" as="geometry" />
        </mxCell>
        <mxCell id="XH_TB9dUD3dWwwe9cZGV-134" style="rounded=0;orthogonalLoop=1;jettySize=auto;html=1;endArrow=open;endFill=0;dashed=1;" edge="1" parent="WIyWlLk6GJQsqaUBKTNV-1" source="XH_TB9dUD3dWwwe9cZGV-15" target="XH_TB9dUD3dWwwe9cZGV-27">
          <mxGeometry relative="1" as="geometry" />
        </mxCell>
        <mxCell id="XH_TB9dUD3dWwwe9cZGV-135" value="&amp;lt;&amp;lt;Include&amp;gt;&amp;gt;" style="edgeLabel;html=1;align=center;verticalAlign=middle;resizable=0;points=[];" vertex="1" connectable="0" parent="XH_TB9dUD3dWwwe9cZGV-134">
          <mxGeometry x="-0.1325" relative="1" as="geometry">
            <mxPoint as="offset" />
          </mxGeometry>
        </mxCell>
        <mxCell id="XH_TB9dUD3dWwwe9cZGV-138" style="edgeStyle=orthogonalEdgeStyle;rounded=0;orthogonalLoop=1;jettySize=auto;html=1;entryX=0.5;entryY=1;entryDx=0;entryDy=0;endArrow=block;endFill=0;" edge="1" parent="WIyWlLk6GJQsqaUBKTNV-1" source="XH_TB9dUD3dWwwe9cZGV-15" target="XH_TB9dUD3dWwwe9cZGV-3">
          <mxGeometry relative="1" as="geometry">
            <Array as="points">
              <mxPoint x="640" y="2020" />
              <mxPoint x="491" y="2020" />
            </Array>
          </mxGeometry>
        </mxCell>
        <mxCell id="XH_TB9dUD3dWwwe9cZGV-15" value="View all course with enrolled student" style="ellipse;whiteSpace=wrap;html=1;" vertex="1" parent="WIyWlLk6GJQsqaUBKTNV-1">
          <mxGeometry x="580" y="2058.51" width="120" height="80" as="geometry" />
        </mxCell>
        <UserObject label="Select exit" lucidchartObjectId="wDb8d5ZHAHH7" id="XH_TB9dUD3dWwwe9cZGV-20">
          <mxCell style="html=1;overflow=block;blockSpacing=1;whiteSpace=wrap;ellipse;fontSize=13;spacing=3.8;strokeColor=#3a414a;strokeOpacity=100;rounded=1;absoluteArcSize=1;arcSize=9;strokeWidth=0.8;" vertex="1" parent="WIyWlLk6GJQsqaUBKTNV-1">
            <mxGeometry x="525" y="2350" width="128" height="90" as="geometry" />
          </mxCell>
        </UserObject>
        <mxCell id="XH_TB9dUD3dWwwe9cZGV-31" style="edgeStyle=none;rounded=0;orthogonalLoop=1;jettySize=auto;html=1;dashed=1;endArrow=openThin;endFill=0;" edge="1" parent="WIyWlLk6GJQsqaUBKTNV-1" source="XH_TB9dUD3dWwwe9cZGV-21" target="XH_TB9dUD3dWwwe9cZGV-22">
          <mxGeometry relative="1" as="geometry" />
        </mxCell>
        <mxCell id="XH_TB9dUD3dWwwe9cZGV-147" value="&amp;lt;&amp;lt;Include&amp;gt;&amp;gt;" style="edgeLabel;html=1;align=center;verticalAlign=middle;resizable=0;points=[];" vertex="1" connectable="0" parent="XH_TB9dUD3dWwwe9cZGV-31">
          <mxGeometry x="-0.2248" y="1" relative="1" as="geometry">
            <mxPoint as="offset" />
          </mxGeometry>
        </mxCell>
        <mxCell id="XH_TB9dUD3dWwwe9cZGV-50" value="&amp;lt;&amp;lt;Include&amp;gt;&amp;gt;" style="edgeStyle=none;rounded=0;orthogonalLoop=1;jettySize=auto;html=1;dashed=1;endArrow=open;endFill=0;" edge="1" parent="WIyWlLk6GJQsqaUBKTNV-1" source="XH_TB9dUD3dWwwe9cZGV-21" target="XH_TB9dUD3dWwwe9cZGV-20">
          <mxGeometry relative="1" as="geometry" />
        </mxCell>
        <mxCell id="XH_TB9dUD3dWwwe9cZGV-21" value="Input student ID" style="ellipse;whiteSpace=wrap;html=1;" vertex="1" parent="WIyWlLk6GJQsqaUBKTNV-1">
          <mxGeometry x="240" y="2188.51" width="120" height="80" as="geometry" />
        </mxCell>
        <mxCell id="XH_TB9dUD3dWwwe9cZGV-32" style="edgeStyle=none;rounded=0;orthogonalLoop=1;jettySize=auto;html=1;dashed=1;endArrow=openThin;endFill=0;" edge="1" parent="WIyWlLk6GJQsqaUBKTNV-1" source="XH_TB9dUD3dWwwe9cZGV-22" target="XH_TB9dUD3dWwwe9cZGV-25">
          <mxGeometry relative="1" as="geometry" />
        </mxCell>
        <mxCell id="XH_TB9dUD3dWwwe9cZGV-35" value="&amp;lt;&amp;lt;Include&amp;gt;&amp;gt;" style="edgeLabel;html=1;align=center;verticalAlign=middle;resizable=0;points=[];" vertex="1" connectable="0" parent="XH_TB9dUD3dWwwe9cZGV-32">
          <mxGeometry x="-0.1882" y="-1" relative="1" as="geometry">
            <mxPoint y="1" as="offset" />
          </mxGeometry>
        </mxCell>
        <mxCell id="XH_TB9dUD3dWwwe9cZGV-22" value="Check student exist" style="ellipse;whiteSpace=wrap;html=1;" vertex="1" parent="WIyWlLk6GJQsqaUBKTNV-1">
          <mxGeometry x="240" y="2328.51" width="120" height="80" as="geometry" />
        </mxCell>
        <mxCell id="XH_TB9dUD3dWwwe9cZGV-36" value="&amp;lt;&amp;lt;Include&amp;gt;&amp;gt;" style="edgeStyle=none;rounded=0;orthogonalLoop=1;jettySize=auto;html=1;entryX=0;entryY=1;entryDx=0;entryDy=0;dashed=1;endArrow=openThin;endFill=0;" edge="1" parent="WIyWlLk6GJQsqaUBKTNV-1" source="XH_TB9dUD3dWwwe9cZGV-25" target="XH_TB9dUD3dWwwe9cZGV-27">
          <mxGeometry relative="1" as="geometry" />
        </mxCell>
        <mxCell id="XH_TB9dUD3dWwwe9cZGV-25" value="Display valid student" style="ellipse;whiteSpace=wrap;html=1;" vertex="1" parent="WIyWlLk6GJQsqaUBKTNV-1">
          <mxGeometry x="360" y="2470" width="120" height="80" as="geometry" />
        </mxCell>
        <mxCell id="XH_TB9dUD3dWwwe9cZGV-33" style="edgeStyle=none;rounded=0;orthogonalLoop=1;jettySize=auto;html=1;entryX=0.281;entryY=0.952;entryDx=0;entryDy=0;entryPerimeter=0;dashed=1;endArrow=openThin;endFill=0;" edge="1" parent="WIyWlLk6GJQsqaUBKTNV-1" source="XH_TB9dUD3dWwwe9cZGV-26" target="XH_TB9dUD3dWwwe9cZGV-22">
          <mxGeometry relative="1" as="geometry" />
        </mxCell>
        <mxCell id="XH_TB9dUD3dWwwe9cZGV-34" value="&amp;lt;&amp;lt;Extend&amp;gt;&amp;gt;" style="edgeLabel;html=1;align=center;verticalAlign=middle;resizable=0;points=[];" vertex="1" connectable="0" parent="XH_TB9dUD3dWwwe9cZGV-33">
          <mxGeometry x="0.0231" y="-2" relative="1" as="geometry">
            <mxPoint x="-1" as="offset" />
          </mxGeometry>
        </mxCell>
        <mxCell id="XH_TB9dUD3dWwwe9cZGV-26" value="Display student not exist" style="ellipse;whiteSpace=wrap;html=1;" vertex="1" parent="WIyWlLk6GJQsqaUBKTNV-1">
          <mxGeometry x="150" y="2470" width="120" height="80" as="geometry" />
        </mxCell>
        <mxCell id="XH_TB9dUD3dWwwe9cZGV-38" value="&amp;lt;&amp;lt;Include&amp;gt;&amp;gt;" style="edgeStyle=none;rounded=0;orthogonalLoop=1;jettySize=auto;html=1;entryX=0.382;entryY=0.011;entryDx=0;entryDy=0;entryPerimeter=0;dashed=1;endArrow=openThin;endFill=0;" edge="1" parent="WIyWlLk6GJQsqaUBKTNV-1" source="XH_TB9dUD3dWwwe9cZGV-27" target="XH_TB9dUD3dWwwe9cZGV-28">
          <mxGeometry relative="1" as="geometry" />
        </mxCell>
        <mxCell id="XH_TB9dUD3dWwwe9cZGV-48" style="rounded=0;orthogonalLoop=1;jettySize=auto;html=1;endArrow=open;endFill=0;dashed=1;" edge="1" parent="WIyWlLk6GJQsqaUBKTNV-1" source="XH_TB9dUD3dWwwe9cZGV-27" target="XH_TB9dUD3dWwwe9cZGV-20">
          <mxGeometry relative="1" as="geometry" />
        </mxCell>
        <mxCell id="XH_TB9dUD3dWwwe9cZGV-49" value="&amp;lt;&amp;lt;Include&amp;gt;&amp;gt;" style="edgeLabel;html=1;align=center;verticalAlign=middle;resizable=0;points=[];" vertex="1" connectable="0" parent="XH_TB9dUD3dWwwe9cZGV-48">
          <mxGeometry x="-0.009" y="1" relative="1" as="geometry">
            <mxPoint as="offset" />
          </mxGeometry>
        </mxCell>
        <mxCell id="XH_TB9dUD3dWwwe9cZGV-27" value="Input semester" style="ellipse;whiteSpace=wrap;html=1;" vertex="1" parent="WIyWlLk6GJQsqaUBKTNV-1">
          <mxGeometry x="510" y="2200" width="120" height="80" as="geometry" />
        </mxCell>
        <mxCell id="XH_TB9dUD3dWwwe9cZGV-39" style="edgeStyle=none;rounded=0;orthogonalLoop=1;jettySize=auto;html=1;entryX=0.5;entryY=0;entryDx=0;entryDy=0;dashed=1;endArrow=openThin;endFill=0;" edge="1" parent="WIyWlLk6GJQsqaUBKTNV-1" source="XH_TB9dUD3dWwwe9cZGV-28" target="XH_TB9dUD3dWwwe9cZGV-29">
          <mxGeometry relative="1" as="geometry" />
        </mxCell>
        <mxCell id="XH_TB9dUD3dWwwe9cZGV-40" value="&amp;lt;&amp;lt;Include&amp;gt;&amp;gt;" style="edgeLabel;html=1;align=center;verticalAlign=middle;resizable=0;points=[];" vertex="1" connectable="0" parent="XH_TB9dUD3dWwwe9cZGV-39">
          <mxGeometry x="-0.2039" y="-2" relative="1" as="geometry">
            <mxPoint as="offset" />
          </mxGeometry>
        </mxCell>
        <mxCell id="XH_TB9dUD3dWwwe9cZGV-28" value="Check semester valid" style="ellipse;whiteSpace=wrap;html=1;" vertex="1" parent="WIyWlLk6GJQsqaUBKTNV-1">
          <mxGeometry x="690" y="2280" width="120" height="80" as="geometry" />
        </mxCell>
        <mxCell id="XH_TB9dUD3dWwwe9cZGV-29" value="Display&amp;nbsp;" style="ellipse;whiteSpace=wrap;html=1;" vertex="1" parent="WIyWlLk6GJQsqaUBKTNV-1">
          <mxGeometry x="705" y="2411.49" width="120" height="80" as="geometry" />
        </mxCell>
        <mxCell id="XH_TB9dUD3dWwwe9cZGV-43" style="edgeStyle=orthogonalEdgeStyle;rounded=0;orthogonalLoop=1;jettySize=auto;html=1;entryX=0.5;entryY=1;entryDx=0;entryDy=0;endArrow=block;endFill=0;exitX=0.5;exitY=0;exitDx=0;exitDy=0;" edge="1" parent="WIyWlLk6GJQsqaUBKTNV-1" source="XH_TB9dUD3dWwwe9cZGV-41" target="XH_TB9dUD3dWwwe9cZGV-29">
          <mxGeometry relative="1" as="geometry">
            <mxPoint x="630" y="2561.49" as="sourcePoint" />
            <Array as="points">
              <mxPoint x="630" y="2522" />
              <mxPoint x="765" y="2522" />
            </Array>
          </mxGeometry>
        </mxCell>
        <mxCell id="XH_TB9dUD3dWwwe9cZGV-51" value="&amp;lt;&amp;lt;Include&amp;gt;&amp;gt;" style="edgeStyle=none;rounded=0;orthogonalLoop=1;jettySize=auto;html=1;entryX=0.5;entryY=0;entryDx=0;entryDy=0;dashed=1;endArrow=open;endFill=0;" edge="1" parent="WIyWlLk6GJQsqaUBKTNV-1" source="XH_TB9dUD3dWwwe9cZGV-41" target="XH_TB9dUD3dWwwe9cZGV-47">
          <mxGeometry relative="1" as="geometry" />
        </mxCell>
        <mxCell id="XH_TB9dUD3dWwwe9cZGV-57" value="&amp;lt;&amp;lt;Include&amp;gt;&amp;gt;" style="edgeStyle=none;rounded=0;orthogonalLoop=1;jettySize=auto;html=1;entryX=1;entryY=0;entryDx=0;entryDy=0;dashed=1;endArrow=open;endFill=0;" edge="1" parent="WIyWlLk6GJQsqaUBKTNV-1" source="XH_TB9dUD3dWwwe9cZGV-41" target="XH_TB9dUD3dWwwe9cZGV-53">
          <mxGeometry relative="1" as="geometry" />
        </mxCell>
        <mxCell id="XH_TB9dUD3dWwwe9cZGV-41" value="Display &amp;nbsp;1 student" style="ellipse;whiteSpace=wrap;html=1;" vertex="1" parent="WIyWlLk6GJQsqaUBKTNV-1">
          <mxGeometry x="570" y="2561.49" width="120" height="80" as="geometry" />
        </mxCell>
        <mxCell id="XH_TB9dUD3dWwwe9cZGV-44" style="edgeStyle=orthogonalEdgeStyle;rounded=0;orthogonalLoop=1;jettySize=auto;html=1;endArrow=block;endFill=0;" edge="1" parent="WIyWlLk6GJQsqaUBKTNV-1" source="XH_TB9dUD3dWwwe9cZGV-42" target="XH_TB9dUD3dWwwe9cZGV-29">
          <mxGeometry relative="1" as="geometry">
            <Array as="points">
              <mxPoint x="765" y="2541.49" />
              <mxPoint x="765" y="2541.49" />
            </Array>
          </mxGeometry>
        </mxCell>
        <mxCell id="XH_TB9dUD3dWwwe9cZGV-141" style="rounded=0;orthogonalLoop=1;jettySize=auto;html=1;entryX=0.5;entryY=0;entryDx=0;entryDy=0;endArrow=open;endFill=0;dashed=1;" edge="1" parent="WIyWlLk6GJQsqaUBKTNV-1" source="XH_TB9dUD3dWwwe9cZGV-42" target="XH_TB9dUD3dWwwe9cZGV-140">
          <mxGeometry relative="1" as="geometry" />
        </mxCell>
        <mxCell id="XH_TB9dUD3dWwwe9cZGV-142" value="&amp;lt;&amp;lt;Include&amp;gt;&amp;gt;" style="edgeLabel;html=1;align=center;verticalAlign=middle;resizable=0;points=[];" vertex="1" connectable="0" parent="XH_TB9dUD3dWwwe9cZGV-141">
          <mxGeometry x="-0.0443" y="1" relative="1" as="geometry">
            <mxPoint as="offset" />
          </mxGeometry>
        </mxCell>
        <mxCell id="XH_TB9dUD3dWwwe9cZGV-208" style="edgeStyle=none;rounded=0;orthogonalLoop=1;jettySize=auto;html=1;exitX=0;exitY=1;exitDx=0;exitDy=0;entryX=0.984;entryY=0.278;entryDx=0;entryDy=0;entryPerimeter=0;dashed=1;endArrow=open;endFill=0;" edge="1" parent="WIyWlLk6GJQsqaUBKTNV-1" source="XH_TB9dUD3dWwwe9cZGV-42" target="XH_TB9dUD3dWwwe9cZGV-53">
          <mxGeometry relative="1" as="geometry" />
        </mxCell>
        <mxCell id="XH_TB9dUD3dWwwe9cZGV-209" value="&amp;lt;&amp;lt;Include&amp;gt;&amp;gt;" style="edgeLabel;html=1;align=center;verticalAlign=middle;resizable=0;points=[];" vertex="1" connectable="0" parent="XH_TB9dUD3dWwwe9cZGV-208">
          <mxGeometry x="-0.4524" y="-2" relative="1" as="geometry">
            <mxPoint as="offset" />
          </mxGeometry>
        </mxCell>
        <mxCell id="XH_TB9dUD3dWwwe9cZGV-42" value="Display all student" style="ellipse;whiteSpace=wrap;html=1;" vertex="1" parent="WIyWlLk6GJQsqaUBKTNV-1">
          <mxGeometry x="705" y="2561.49" width="120" height="80" as="geometry" />
        </mxCell>
        <mxCell id="XH_TB9dUD3dWwwe9cZGV-46" style="edgeStyle=orthogonalEdgeStyle;rounded=0;orthogonalLoop=1;jettySize=auto;html=1;entryX=0.5;entryY=1;entryDx=0;entryDy=0;endArrow=block;endFill=0;exitX=0.5;exitY=0;exitDx=0;exitDy=0;" edge="1" parent="WIyWlLk6GJQsqaUBKTNV-1" source="XH_TB9dUD3dWwwe9cZGV-45" target="XH_TB9dUD3dWwwe9cZGV-29">
          <mxGeometry relative="1" as="geometry">
            <mxPoint x="1140" y="2560" as="sourcePoint" />
            <Array as="points">
              <mxPoint x="1160" y="2522" />
              <mxPoint x="765" y="2522" />
            </Array>
          </mxGeometry>
        </mxCell>
        <mxCell id="XH_TB9dUD3dWwwe9cZGV-206" style="edgeStyle=none;rounded=0;orthogonalLoop=1;jettySize=auto;html=1;entryX=0.5;entryY=0;entryDx=0;entryDy=0;dashed=1;endArrow=open;endFill=0;" edge="1" parent="WIyWlLk6GJQsqaUBKTNV-1" source="XH_TB9dUD3dWwwe9cZGV-45" target="XH_TB9dUD3dWwwe9cZGV-205">
          <mxGeometry relative="1" as="geometry" />
        </mxCell>
        <mxCell id="XH_TB9dUD3dWwwe9cZGV-207" value="&amp;lt;&amp;lt;Include&amp;gt;&amp;gt;" style="edgeLabel;html=1;align=center;verticalAlign=middle;resizable=0;points=[];" vertex="1" connectable="0" parent="XH_TB9dUD3dWwwe9cZGV-206">
          <mxGeometry x="0.0058" y="3" relative="1" as="geometry">
            <mxPoint as="offset" />
          </mxGeometry>
        </mxCell>
        <mxCell id="XH_TB9dUD3dWwwe9cZGV-45" value="Display all course with enrolled student" style="ellipse;whiteSpace=wrap;html=1;" vertex="1" parent="WIyWlLk6GJQsqaUBKTNV-1">
          <mxGeometry x="1100" y="2561.49" width="120" height="80" as="geometry" />
        </mxCell>
        <mxCell id="XH_TB9dUD3dWwwe9cZGV-47" value="Select perform tasks" style="ellipse;whiteSpace=wrap;html=1;" vertex="1" parent="WIyWlLk6GJQsqaUBKTNV-1">
          <mxGeometry x="569" y="2695" width="120" height="80" as="geometry" />
        </mxCell>
        <UserObject label="Select exit" lucidchartObjectId="wDb8d5ZHAHH7" id="XH_TB9dUD3dWwwe9cZGV-53">
          <mxCell style="html=1;overflow=block;blockSpacing=1;whiteSpace=wrap;ellipse;fontSize=13;spacing=3.8;strokeColor=#3a414a;strokeOpacity=100;rounded=1;absoluteArcSize=1;arcSize=9;strokeWidth=0.8;" vertex="1" parent="WIyWlLk6GJQsqaUBKTNV-1">
            <mxGeometry x="414" y="2685" width="128" height="90" as="geometry" />
          </mxCell>
        </UserObject>
        <mxCell id="XH_TB9dUD3dWwwe9cZGV-58" style="edgeStyle=none;rounded=0;orthogonalLoop=1;jettySize=auto;html=1;entryX=0.706;entryY=0.938;entryDx=0;entryDy=0;entryPerimeter=0;dashed=1;endArrow=open;endFill=0;" edge="1" parent="WIyWlLk6GJQsqaUBKTNV-1" source="XH_TB9dUD3dWwwe9cZGV-56" target="XH_TB9dUD3dWwwe9cZGV-53">
          <mxGeometry relative="1" as="geometry" />
        </mxCell>
        <mxCell id="XH_TB9dUD3dWwwe9cZGV-60" value="&amp;lt;&amp;lt;Extend&amp;gt;&amp;gt;" style="edgeLabel;html=1;align=center;verticalAlign=middle;resizable=0;points=[];" vertex="1" connectable="0" parent="XH_TB9dUD3dWwwe9cZGV-58">
          <mxGeometry x="-0.1348" y="-4" relative="1" as="geometry">
            <mxPoint as="offset" />
          </mxGeometry>
        </mxCell>
        <mxCell id="XH_TB9dUD3dWwwe9cZGV-59" style="edgeStyle=none;rounded=0;orthogonalLoop=1;jettySize=auto;html=1;entryX=0.296;entryY=0.949;entryDx=0;entryDy=0;entryPerimeter=0;dashed=1;endArrow=open;endFill=0;" edge="1" parent="WIyWlLk6GJQsqaUBKTNV-1" source="XH_TB9dUD3dWwwe9cZGV-56" target="XH_TB9dUD3dWwwe9cZGV-47">
          <mxGeometry relative="1" as="geometry" />
        </mxCell>
        <mxCell id="XH_TB9dUD3dWwwe9cZGV-61" value="&amp;lt;&amp;lt;Extend&amp;gt;&amp;gt;" style="edgeLabel;html=1;align=center;verticalAlign=middle;resizable=0;points=[];" vertex="1" connectable="0" parent="XH_TB9dUD3dWwwe9cZGV-59">
          <mxGeometry x="0.2849" relative="1" as="geometry">
            <mxPoint as="offset" />
          </mxGeometry>
        </mxCell>
        <UserObject label="Display in valid input" lucidchartObjectId="wDb8d5ZHAHH7" id="XH_TB9dUD3dWwwe9cZGV-56">
          <mxCell style="html=1;overflow=block;blockSpacing=1;whiteSpace=wrap;ellipse;fontSize=13;spacing=3.8;strokeColor=#3a414a;strokeOpacity=100;rounded=1;absoluteArcSize=1;arcSize=9;strokeWidth=0.8;" vertex="1" parent="WIyWlLk6GJQsqaUBKTNV-1">
            <mxGeometry x="270" y="2825.03" width="128" height="90" as="geometry" />
          </mxCell>
        </UserObject>
        <mxCell id="XH_TB9dUD3dWwwe9cZGV-75" style="rounded=0;orthogonalLoop=1;jettySize=auto;html=1;entryX=0.272;entryY=0.007;entryDx=0;entryDy=0;endArrow=open;endFill=0;dashed=1;entryPerimeter=0;" edge="1" parent="WIyWlLk6GJQsqaUBKTNV-1" source="XH_TB9dUD3dWwwe9cZGV-62" target="XH_TB9dUD3dWwwe9cZGV-74">
          <mxGeometry relative="1" as="geometry" />
        </mxCell>
        <mxCell id="XH_TB9dUD3dWwwe9cZGV-76" value="&amp;lt;&amp;lt;Include&amp;gt;&amp;gt;" style="edgeLabel;html=1;align=center;verticalAlign=middle;resizable=0;points=[];" vertex="1" connectable="0" parent="XH_TB9dUD3dWwwe9cZGV-75">
          <mxGeometry x="-0.2941" y="1" relative="1" as="geometry">
            <mxPoint as="offset" />
          </mxGeometry>
        </mxCell>
        <mxCell id="XH_TB9dUD3dWwwe9cZGV-215" style="edgeStyle=orthogonalEdgeStyle;rounded=0;orthogonalLoop=1;jettySize=auto;html=1;endArrow=block;endFill=0;" edge="1" parent="WIyWlLk6GJQsqaUBKTNV-1" source="XH_TB9dUD3dWwwe9cZGV-62" target="XH_TB9dUD3dWwwe9cZGV-47">
          <mxGeometry relative="1" as="geometry">
            <Array as="points">
              <mxPoint x="690" y="2920" />
              <mxPoint x="629" y="2920" />
            </Array>
          </mxGeometry>
        </mxCell>
        <mxCell id="XH_TB9dUD3dWwwe9cZGV-220" style="edgeStyle=orthogonalEdgeStyle;rounded=0;orthogonalLoop=1;jettySize=auto;html=1;endArrow=block;endFill=0;exitX=1;exitY=0;exitDx=0;exitDy=0;" edge="1" parent="WIyWlLk6GJQsqaUBKTNV-1" source="XH_TB9dUD3dWwwe9cZGV-62" target="XH_TB9dUD3dWwwe9cZGV-154">
          <mxGeometry relative="1" as="geometry">
            <mxPoint x="1050" y="3050" as="targetPoint" />
            <Array as="points">
              <mxPoint x="732" y="2990" />
              <mxPoint x="970" y="2990" />
            </Array>
          </mxGeometry>
        </mxCell>
        <mxCell id="XH_TB9dUD3dWwwe9cZGV-62" value="Enroll course" style="ellipse;whiteSpace=wrap;html=1;" vertex="1" parent="WIyWlLk6GJQsqaUBKTNV-1">
          <mxGeometry x="630" y="3010" width="120" height="80" as="geometry" />
        </mxCell>
        <mxCell id="XH_TB9dUD3dWwwe9cZGV-80" value="&amp;lt;&amp;lt;Include&amp;gt;&amp;gt;" style="edgeStyle=none;rounded=0;orthogonalLoop=1;jettySize=auto;html=1;dashed=1;endArrow=open;endFill=0;" edge="1" parent="WIyWlLk6GJQsqaUBKTNV-1" source="XH_TB9dUD3dWwwe9cZGV-63" target="XH_TB9dUD3dWwwe9cZGV-74">
          <mxGeometry relative="1" as="geometry" />
        </mxCell>
        <mxCell id="XH_TB9dUD3dWwwe9cZGV-216" style="edgeStyle=orthogonalEdgeStyle;rounded=0;orthogonalLoop=1;jettySize=auto;html=1;endArrow=block;endFill=0;" edge="1" parent="WIyWlLk6GJQsqaUBKTNV-1" source="XH_TB9dUD3dWwwe9cZGV-63" target="XH_TB9dUD3dWwwe9cZGV-47">
          <mxGeometry relative="1" as="geometry">
            <Array as="points">
              <mxPoint x="825" y="2920" />
              <mxPoint x="629" y="2920" />
            </Array>
          </mxGeometry>
        </mxCell>
        <mxCell id="XH_TB9dUD3dWwwe9cZGV-222" style="edgeStyle=orthogonalEdgeStyle;rounded=0;orthogonalLoop=1;jettySize=auto;html=1;endArrow=block;endFill=0;" edge="1" parent="WIyWlLk6GJQsqaUBKTNV-1" source="XH_TB9dUD3dWwwe9cZGV-63" target="XH_TB9dUD3dWwwe9cZGV-154">
          <mxGeometry relative="1" as="geometry" />
        </mxCell>
        <mxCell id="XH_TB9dUD3dWwwe9cZGV-63" value="Drop course" style="ellipse;whiteSpace=wrap;html=1;" vertex="1" parent="WIyWlLk6GJQsqaUBKTNV-1">
          <mxGeometry x="765" y="3010" width="120" height="80" as="geometry" />
        </mxCell>
        <mxCell id="XH_TB9dUD3dWwwe9cZGV-84" style="edgeStyle=none;rounded=0;orthogonalLoop=1;jettySize=auto;html=1;entryX=0.5;entryY=0;entryDx=0;entryDy=0;dashed=1;endArrow=open;endFill=0;" edge="1" parent="WIyWlLk6GJQsqaUBKTNV-1" source="XH_TB9dUD3dWwwe9cZGV-74" target="XH_TB9dUD3dWwwe9cZGV-83">
          <mxGeometry relative="1" as="geometry" />
        </mxCell>
        <mxCell id="XH_TB9dUD3dWwwe9cZGV-85" value="&amp;lt;&amp;lt;Include&amp;gt;&amp;gt;" style="edgeLabel;html=1;align=center;verticalAlign=middle;resizable=0;points=[];" vertex="1" connectable="0" parent="XH_TB9dUD3dWwwe9cZGV-84">
          <mxGeometry x="-0.2235" y="1" relative="1" as="geometry">
            <mxPoint as="offset" />
          </mxGeometry>
        </mxCell>
        <mxCell id="XH_TB9dUD3dWwwe9cZGV-234" value="&amp;lt;&amp;lt;Include&amp;gt;&amp;gt;" style="edgeStyle=none;rounded=0;orthogonalLoop=1;jettySize=auto;html=1;entryX=0;entryY=0.5;entryDx=0;entryDy=0;dashed=1;endArrow=open;endFill=0;" edge="1" parent="WIyWlLk6GJQsqaUBKTNV-1" source="XH_TB9dUD3dWwwe9cZGV-74" target="XH_TB9dUD3dWwwe9cZGV-232">
          <mxGeometry relative="1" as="geometry" />
        </mxCell>
        <mxCell id="XH_TB9dUD3dWwwe9cZGV-74" value="Input course ID or name" style="ellipse;whiteSpace=wrap;html=1;" vertex="1" parent="WIyWlLk6GJQsqaUBKTNV-1">
          <mxGeometry x="700" y="3155" width="120" height="80" as="geometry" />
        </mxCell>
        <mxCell id="XH_TB9dUD3dWwwe9cZGV-83" value="Check course ID or name" style="ellipse;whiteSpace=wrap;html=1;" vertex="1" parent="WIyWlLk6GJQsqaUBKTNV-1">
          <mxGeometry x="700" y="3280" width="120" height="80" as="geometry" />
        </mxCell>
        <mxCell id="XH_TB9dUD3dWwwe9cZGV-97" style="edgeStyle=orthogonalEdgeStyle;rounded=0;orthogonalLoop=1;jettySize=auto;html=1;entryX=0.5;entryY=1;entryDx=0;entryDy=0;endArrow=block;endFill=0;" edge="1" parent="WIyWlLk6GJQsqaUBKTNV-1" source="XH_TB9dUD3dWwwe9cZGV-95" target="XH_TB9dUD3dWwwe9cZGV-83">
          <mxGeometry relative="1" as="geometry" />
        </mxCell>
        <mxCell id="XH_TB9dUD3dWwwe9cZGV-191" style="edgeStyle=none;rounded=0;orthogonalLoop=1;jettySize=auto;html=1;entryX=0.5;entryY=0;entryDx=0;entryDy=0;dashed=1;endArrow=open;endFill=0;" edge="1" parent="WIyWlLk6GJQsqaUBKTNV-1" source="XH_TB9dUD3dWwwe9cZGV-95" target="XH_TB9dUD3dWwwe9cZGV-105">
          <mxGeometry relative="1" as="geometry" />
        </mxCell>
        <mxCell id="XH_TB9dUD3dWwwe9cZGV-193" value="&amp;lt;&amp;lt;Include&amp;gt;&amp;gt;" style="edgeLabel;html=1;align=center;verticalAlign=middle;resizable=0;points=[];" vertex="1" connectable="0" parent="XH_TB9dUD3dWwwe9cZGV-191">
          <mxGeometry x="-0.3109" y="-2" relative="1" as="geometry">
            <mxPoint y="-1" as="offset" />
          </mxGeometry>
        </mxCell>
        <mxCell id="XH_TB9dUD3dWwwe9cZGV-95" value="Check if course in semester" style="ellipse;whiteSpace=wrap;html=1;" vertex="1" parent="WIyWlLk6GJQsqaUBKTNV-1">
          <mxGeometry x="630" y="3390" width="120" height="80" as="geometry" />
        </mxCell>
        <mxCell id="XH_TB9dUD3dWwwe9cZGV-98" style="edgeStyle=orthogonalEdgeStyle;rounded=0;orthogonalLoop=1;jettySize=auto;html=1;endArrow=block;endFill=0;" edge="1" parent="WIyWlLk6GJQsqaUBKTNV-1" source="XH_TB9dUD3dWwwe9cZGV-96" target="XH_TB9dUD3dWwwe9cZGV-83">
          <mxGeometry relative="1" as="geometry" />
        </mxCell>
        <mxCell id="XH_TB9dUD3dWwwe9cZGV-192" style="edgeStyle=none;rounded=0;orthogonalLoop=1;jettySize=auto;html=1;entryX=0.5;entryY=0;entryDx=0;entryDy=0;dashed=1;endArrow=open;endFill=0;" edge="1" parent="WIyWlLk6GJQsqaUBKTNV-1" source="XH_TB9dUD3dWwwe9cZGV-96" target="XH_TB9dUD3dWwwe9cZGV-106">
          <mxGeometry relative="1" as="geometry" />
        </mxCell>
        <mxCell id="XH_TB9dUD3dWwwe9cZGV-194" value="&amp;lt;&amp;lt;Include&amp;gt;&amp;gt;" style="edgeLabel;html=1;align=center;verticalAlign=middle;resizable=0;points=[];" vertex="1" connectable="0" parent="XH_TB9dUD3dWwwe9cZGV-192">
          <mxGeometry x="-0.3109" y="2" relative="1" as="geometry">
            <mxPoint y="-1" as="offset" />
          </mxGeometry>
        </mxCell>
        <mxCell id="XH_TB9dUD3dWwwe9cZGV-96" value="Check of student have course" style="ellipse;whiteSpace=wrap;html=1;" vertex="1" parent="WIyWlLk6GJQsqaUBKTNV-1">
          <mxGeometry x="780" y="3390" width="120" height="80" as="geometry" />
        </mxCell>
        <mxCell id="XH_TB9dUD3dWwwe9cZGV-105" value="Display enrolled &amp;nbsp;successfully" style="ellipse;whiteSpace=wrap;html=1;" vertex="1" parent="WIyWlLk6GJQsqaUBKTNV-1">
          <mxGeometry x="630" y="3520" width="120" height="80" as="geometry" />
        </mxCell>
        <mxCell id="XH_TB9dUD3dWwwe9cZGV-106" value="Display drop course successfully" style="ellipse;whiteSpace=wrap;html=1;" vertex="1" parent="WIyWlLk6GJQsqaUBKTNV-1">
          <mxGeometry x="780" y="3520" width="120" height="80" as="geometry" />
        </mxCell>
        <mxCell id="XH_TB9dUD3dWwwe9cZGV-158" style="rounded=0;orthogonalLoop=1;jettySize=auto;html=1;entryX=-0.003;entryY=0.382;entryDx=0;entryDy=0;entryPerimeter=0;endArrow=open;endFill=0;dashed=1;" edge="1" parent="WIyWlLk6GJQsqaUBKTNV-1" source="XH_TB9dUD3dWwwe9cZGV-140" target="XH_TB9dUD3dWwwe9cZGV-150">
          <mxGeometry relative="1" as="geometry" />
        </mxCell>
        <mxCell id="XH_TB9dUD3dWwwe9cZGV-159" value="&amp;lt;&amp;lt;Include&amp;gt;&amp;gt;" style="edgeLabel;html=1;align=center;verticalAlign=middle;resizable=0;points=[];" vertex="1" connectable="0" parent="XH_TB9dUD3dWwwe9cZGV-158">
          <mxGeometry x="-0.1637" y="-3" relative="1" as="geometry">
            <mxPoint as="offset" />
          </mxGeometry>
        </mxCell>
        <mxCell id="XH_TB9dUD3dWwwe9cZGV-140" value="Select perform tasks" style="ellipse;whiteSpace=wrap;html=1;" vertex="1" parent="WIyWlLk6GJQsqaUBKTNV-1">
          <mxGeometry x="705" y="2695" width="120" height="80" as="geometry" />
        </mxCell>
        <mxCell id="XH_TB9dUD3dWwwe9cZGV-148" style="edgeStyle=none;rounded=0;orthogonalLoop=1;jettySize=auto;html=1;dashed=1;endArrow=openThin;endFill=0;" edge="1" parent="WIyWlLk6GJQsqaUBKTNV-1" source="XH_TB9dUD3dWwwe9cZGV-150" target="XH_TB9dUD3dWwwe9cZGV-153">
          <mxGeometry relative="1" as="geometry" />
        </mxCell>
        <mxCell id="XH_TB9dUD3dWwwe9cZGV-149" value="&amp;lt;&amp;lt;Include&amp;gt;&amp;gt;" style="edgeLabel;html=1;align=center;verticalAlign=middle;resizable=0;points=[];" vertex="1" connectable="0" parent="XH_TB9dUD3dWwwe9cZGV-148">
          <mxGeometry x="-0.2248" y="1" relative="1" as="geometry">
            <mxPoint as="offset" />
          </mxGeometry>
        </mxCell>
        <mxCell id="XH_TB9dUD3dWwwe9cZGV-150" value="Input student ID" style="ellipse;whiteSpace=wrap;html=1;" vertex="1" parent="WIyWlLk6GJQsqaUBKTNV-1">
          <mxGeometry x="900" y="2730" width="120" height="80" as="geometry" />
        </mxCell>
        <mxCell id="XH_TB9dUD3dWwwe9cZGV-151" style="edgeStyle=none;rounded=0;orthogonalLoop=1;jettySize=auto;html=1;dashed=1;endArrow=openThin;endFill=0;" edge="1" parent="WIyWlLk6GJQsqaUBKTNV-1" source="XH_TB9dUD3dWwwe9cZGV-153" target="XH_TB9dUD3dWwwe9cZGV-154">
          <mxGeometry relative="1" as="geometry" />
        </mxCell>
        <mxCell id="XH_TB9dUD3dWwwe9cZGV-152" value="&amp;lt;&amp;lt;Include&amp;gt;&amp;gt;" style="edgeLabel;html=1;align=center;verticalAlign=middle;resizable=0;points=[];" vertex="1" connectable="0" parent="XH_TB9dUD3dWwwe9cZGV-151">
          <mxGeometry x="-0.1882" y="-1" relative="1" as="geometry">
            <mxPoint y="1" as="offset" />
          </mxGeometry>
        </mxCell>
        <mxCell id="XH_TB9dUD3dWwwe9cZGV-153" value="Check student exist" style="ellipse;whiteSpace=wrap;html=1;" vertex="1" parent="WIyWlLk6GJQsqaUBKTNV-1">
          <mxGeometry x="720" y="2810" width="120" height="80" as="geometry" />
        </mxCell>
        <mxCell id="XH_TB9dUD3dWwwe9cZGV-154" value="Display valid student&amp;nbsp;" style="ellipse;whiteSpace=wrap;html=1;" vertex="1" parent="WIyWlLk6GJQsqaUBKTNV-1">
          <mxGeometry x="910" y="2860" width="120" height="80" as="geometry" />
        </mxCell>
        <mxCell id="XH_TB9dUD3dWwwe9cZGV-160" style="rounded=0;orthogonalLoop=1;jettySize=auto;html=1;entryX=0.5;entryY=0;entryDx=0;entryDy=0;endArrow=open;endFill=0;dashed=1;exitX=0.5;exitY=1;exitDx=0;exitDy=0;" edge="1" parent="WIyWlLk6GJQsqaUBKTNV-1" source="XH_TB9dUD3dWwwe9cZGV-175" target="XH_TB9dUD3dWwwe9cZGV-164">
          <mxGeometry relative="1" as="geometry">
            <mxPoint x="525" y="3022.97" as="sourcePoint" />
          </mxGeometry>
        </mxCell>
        <mxCell id="XH_TB9dUD3dWwwe9cZGV-161" value="&amp;lt;&amp;lt;Include&amp;gt;&amp;gt;" style="edgeLabel;html=1;align=center;verticalAlign=middle;resizable=0;points=[];" vertex="1" connectable="0" parent="XH_TB9dUD3dWwwe9cZGV-160">
          <mxGeometry x="0.0652" relative="1" as="geometry">
            <mxPoint as="offset" />
          </mxGeometry>
        </mxCell>
        <mxCell id="XH_TB9dUD3dWwwe9cZGV-162" style="edgeStyle=none;rounded=0;orthogonalLoop=1;jettySize=auto;html=1;entryX=0.5;entryY=0;entryDx=0;entryDy=0;dashed=1;endArrow=open;endFill=0;" edge="1" parent="WIyWlLk6GJQsqaUBKTNV-1" source="XH_TB9dUD3dWwwe9cZGV-164" target="XH_TB9dUD3dWwwe9cZGV-167">
          <mxGeometry relative="1" as="geometry" />
        </mxCell>
        <mxCell id="XH_TB9dUD3dWwwe9cZGV-163" value="&amp;lt;&amp;lt;Include&amp;gt;&amp;gt;" style="edgeLabel;html=1;align=center;verticalAlign=middle;resizable=0;points=[];" vertex="1" connectable="0" parent="XH_TB9dUD3dWwwe9cZGV-162">
          <mxGeometry x="-0.1346" relative="1" as="geometry">
            <mxPoint y="-1" as="offset" />
          </mxGeometry>
        </mxCell>
        <mxCell id="XH_TB9dUD3dWwwe9cZGV-164" value="Input data&#39;s field" style="ellipse;whiteSpace=wrap;html=1;" vertex="1" parent="WIyWlLk6GJQsqaUBKTNV-1">
          <mxGeometry x="465" y="3085" width="120" height="80" as="geometry" />
        </mxCell>
        <mxCell id="XH_TB9dUD3dWwwe9cZGV-165" style="edgeStyle=none;rounded=0;orthogonalLoop=1;jettySize=auto;html=1;entryX=0.5;entryY=0;entryDx=0;entryDy=0;dashed=1;endArrow=open;endFill=0;" edge="1" parent="WIyWlLk6GJQsqaUBKTNV-1" source="XH_TB9dUD3dWwwe9cZGV-167" target="XH_TB9dUD3dWwwe9cZGV-173">
          <mxGeometry relative="1" as="geometry" />
        </mxCell>
        <mxCell id="XH_TB9dUD3dWwwe9cZGV-166" value="&amp;lt;&amp;lt;Include&amp;gt;&amp;gt;" style="edgeLabel;html=1;align=center;verticalAlign=middle;resizable=0;points=[];" vertex="1" connectable="0" parent="XH_TB9dUD3dWwwe9cZGV-165">
          <mxGeometry x="-0.2155" y="-1" relative="1" as="geometry">
            <mxPoint as="offset" />
          </mxGeometry>
        </mxCell>
        <mxCell id="XH_TB9dUD3dWwwe9cZGV-167" value="Check if field exist" style="ellipse;whiteSpace=wrap;html=1;" vertex="1" parent="WIyWlLk6GJQsqaUBKTNV-1">
          <mxGeometry x="465" y="3218" width="120" height="80" as="geometry" />
        </mxCell>
        <mxCell id="XH_TB9dUD3dWwwe9cZGV-168" style="edgeStyle=none;rounded=0;orthogonalLoop=1;jettySize=auto;html=1;entryX=-0.005;entryY=0.613;entryDx=0;entryDy=0;entryPerimeter=0;dashed=1;endArrow=open;endFill=0;" edge="1" parent="WIyWlLk6GJQsqaUBKTNV-1" source="XH_TB9dUD3dWwwe9cZGV-170" target="XH_TB9dUD3dWwwe9cZGV-167">
          <mxGeometry relative="1" as="geometry">
            <mxPoint x="753.0047143490381" y="3091.2559143293374" as="sourcePoint" />
            <mxPoint x="635.5699999999999" y="3010" as="targetPoint" />
          </mxGeometry>
        </mxCell>
        <mxCell id="XH_TB9dUD3dWwwe9cZGV-169" value="&amp;lt;&amp;lt;Extend&amp;gt;&amp;gt;" style="edgeLabel;html=1;align=center;verticalAlign=middle;resizable=0;points=[];" vertex="1" connectable="0" parent="XH_TB9dUD3dWwwe9cZGV-168">
          <mxGeometry x="0.1551" y="-2" relative="1" as="geometry">
            <mxPoint x="14" y="7" as="offset" />
          </mxGeometry>
        </mxCell>
        <mxCell id="XH_TB9dUD3dWwwe9cZGV-170" value="Display invalid field" style="ellipse;whiteSpace=wrap;html=1;" vertex="1" parent="WIyWlLk6GJQsqaUBKTNV-1">
          <mxGeometry x="270" y="3250" width="120" height="80" as="geometry" />
        </mxCell>
        <mxCell id="XH_TB9dUD3dWwwe9cZGV-171" style="edgeStyle=none;rounded=0;orthogonalLoop=1;jettySize=auto;html=1;entryX=0.5;entryY=0;entryDx=0;entryDy=0;dashed=1;endArrow=open;endFill=0;" edge="1" parent="WIyWlLk6GJQsqaUBKTNV-1" source="XH_TB9dUD3dWwwe9cZGV-173" target="XH_TB9dUD3dWwwe9cZGV-174">
          <mxGeometry relative="1" as="geometry" />
        </mxCell>
        <mxCell id="XH_TB9dUD3dWwwe9cZGV-172" value="&amp;lt;&amp;lt;Include&amp;gt;&amp;gt;" style="edgeLabel;html=1;align=center;verticalAlign=middle;resizable=0;points=[];" vertex="1" connectable="0" parent="XH_TB9dUD3dWwwe9cZGV-171">
          <mxGeometry x="-0.5066" y="1" relative="1" as="geometry">
            <mxPoint x="-1" y="15" as="offset" />
          </mxGeometry>
        </mxCell>
        <mxCell id="XH_TB9dUD3dWwwe9cZGV-173" value="Input new data" style="ellipse;whiteSpace=wrap;html=1;" vertex="1" parent="WIyWlLk6GJQsqaUBKTNV-1">
          <mxGeometry x="452" y="3350" width="120" height="80" as="geometry" />
        </mxCell>
        <mxCell id="XH_TB9dUD3dWwwe9cZGV-174" value="Display &amp;nbsp;update successfully, new student data" style="ellipse;whiteSpace=wrap;html=1;" vertex="1" parent="WIyWlLk6GJQsqaUBKTNV-1">
          <mxGeometry x="410" y="3470" width="120" height="80" as="geometry" />
        </mxCell>
        <mxCell id="XH_TB9dUD3dWwwe9cZGV-214" style="edgeStyle=orthogonalEdgeStyle;rounded=0;orthogonalLoop=1;jettySize=auto;html=1;entryX=0.5;entryY=1;entryDx=0;entryDy=0;endArrow=block;endFill=0;" edge="1" parent="WIyWlLk6GJQsqaUBKTNV-1" source="XH_TB9dUD3dWwwe9cZGV-175" target="XH_TB9dUD3dWwwe9cZGV-47">
          <mxGeometry relative="1" as="geometry">
            <Array as="points">
              <mxPoint x="525" y="2920" />
              <mxPoint x="629" y="2920" />
            </Array>
          </mxGeometry>
        </mxCell>
        <mxCell id="XH_TB9dUD3dWwwe9cZGV-217" style="edgeStyle=orthogonalEdgeStyle;rounded=0;orthogonalLoop=1;jettySize=auto;html=1;entryX=0.5;entryY=1;entryDx=0;entryDy=0;endArrow=block;endFill=0;" edge="1" parent="WIyWlLk6GJQsqaUBKTNV-1" source="XH_TB9dUD3dWwwe9cZGV-175" target="XH_TB9dUD3dWwwe9cZGV-154">
          <mxGeometry relative="1" as="geometry">
            <Array as="points">
              <mxPoint x="970" y="2990" />
            </Array>
          </mxGeometry>
        </mxCell>
        <mxCell id="XH_TB9dUD3dWwwe9cZGV-175" value="Drop course" style="ellipse;whiteSpace=wrap;html=1;" vertex="1" parent="WIyWlLk6GJQsqaUBKTNV-1">
          <mxGeometry x="465" y="2940" width="120" height="80" as="geometry" />
        </mxCell>
        <mxCell id="XH_TB9dUD3dWwwe9cZGV-190" value="&amp;lt;&amp;lt;Extend&amp;gt;&amp;gt;" style="edgeStyle=none;rounded=0;orthogonalLoop=1;jettySize=auto;html=1;entryX=1;entryY=0.5;entryDx=0;entryDy=0;dashed=1;endArrow=open;endFill=0;" edge="1" parent="WIyWlLk6GJQsqaUBKTNV-1" source="XH_TB9dUD3dWwwe9cZGV-183" target="XH_TB9dUD3dWwwe9cZGV-83">
          <mxGeometry relative="1" as="geometry" />
        </mxCell>
        <mxCell id="XH_TB9dUD3dWwwe9cZGV-183" value="Display course is not exist" style="ellipse;whiteSpace=wrap;html=1;" vertex="1" parent="WIyWlLk6GJQsqaUBKTNV-1">
          <mxGeometry x="945" y="3320" width="120" height="80" as="geometry" />
        </mxCell>
        <mxCell id="XH_TB9dUD3dWwwe9cZGV-259" style="edgeStyle=orthogonalEdgeStyle;rounded=0;orthogonalLoop=1;jettySize=auto;html=1;endArrow=block;endFill=0;" edge="1" parent="WIyWlLk6GJQsqaUBKTNV-1" source="XH_TB9dUD3dWwwe9cZGV-195" target="XH_TB9dUD3dWwwe9cZGV-29">
          <mxGeometry relative="1" as="geometry">
            <Array as="points">
              <mxPoint x="1160" y="2520" />
              <mxPoint x="765" y="2520" />
            </Array>
          </mxGeometry>
        </mxCell>
        <mxCell id="XH_TB9dUD3dWwwe9cZGV-261" style="rounded=0;orthogonalLoop=1;jettySize=auto;html=1;endArrow=open;endFill=0;dashed=1;" edge="1" parent="WIyWlLk6GJQsqaUBKTNV-1" source="XH_TB9dUD3dWwwe9cZGV-195" target="XH_TB9dUD3dWwwe9cZGV-260">
          <mxGeometry relative="1" as="geometry" />
        </mxCell>
        <mxCell id="XH_TB9dUD3dWwwe9cZGV-262" value="&amp;lt;&amp;lt;Include&amp;gt;&amp;gt;" style="edgeLabel;html=1;align=center;verticalAlign=middle;resizable=0;points=[];" vertex="1" connectable="0" parent="XH_TB9dUD3dWwwe9cZGV-261">
          <mxGeometry x="0.0784" relative="1" as="geometry">
            <mxPoint y="-1" as="offset" />
          </mxGeometry>
        </mxCell>
        <mxCell id="XH_TB9dUD3dWwwe9cZGV-264" value="&amp;lt;&amp;lt;Include&amp;gt;&amp;gt;" style="edgeStyle=none;rounded=0;orthogonalLoop=1;jettySize=auto;html=1;entryX=0.036;entryY=0.662;entryDx=0;entryDy=0;entryPerimeter=0;dashed=1;endArrow=open;endFill=0;" edge="1" parent="WIyWlLk6GJQsqaUBKTNV-1" source="XH_TB9dUD3dWwwe9cZGV-195" target="XH_TB9dUD3dWwwe9cZGV-263">
          <mxGeometry relative="1" as="geometry" />
        </mxCell>
        <mxCell id="XH_TB9dUD3dWwwe9cZGV-195" value="Display all course in semester" style="ellipse;whiteSpace=wrap;html=1;" vertex="1" parent="WIyWlLk6GJQsqaUBKTNV-1">
          <mxGeometry x="1100" y="2370" width="120" height="80" as="geometry" />
        </mxCell>
        <mxCell id="XH_TB9dUD3dWwwe9cZGV-205" value="Select perform tasks" style="ellipse;whiteSpace=wrap;html=1;" vertex="1" parent="WIyWlLk6GJQsqaUBKTNV-1">
          <mxGeometry x="1100" y="2695" width="120" height="80" as="geometry" />
        </mxCell>
        <mxCell id="XH_TB9dUD3dWwwe9cZGV-224" style="edgeStyle=orthogonalEdgeStyle;rounded=0;orthogonalLoop=1;jettySize=auto;html=1;endArrow=block;endFill=0;" edge="1" parent="WIyWlLk6GJQsqaUBKTNV-1" source="XH_TB9dUD3dWwwe9cZGV-210" target="XH_TB9dUD3dWwwe9cZGV-205">
          <mxGeometry relative="1" as="geometry" />
        </mxCell>
        <mxCell id="XH_TB9dUD3dWwwe9cZGV-228" style="rounded=0;orthogonalLoop=1;jettySize=auto;html=1;endArrow=open;endFill=0;dashed=1;" edge="1" parent="WIyWlLk6GJQsqaUBKTNV-1" source="XH_TB9dUD3dWwwe9cZGV-210" target="XH_TB9dUD3dWwwe9cZGV-226">
          <mxGeometry relative="1" as="geometry" />
        </mxCell>
        <mxCell id="XH_TB9dUD3dWwwe9cZGV-229" value="&amp;lt;&amp;lt;Include&amp;gt;&amp;gt;" style="edgeLabel;html=1;align=center;verticalAlign=middle;resizable=0;points=[];" vertex="1" connectable="0" parent="XH_TB9dUD3dWwwe9cZGV-228">
          <mxGeometry x="-0.1998" y="-1" relative="1" as="geometry">
            <mxPoint as="offset" />
          </mxGeometry>
        </mxCell>
        <mxCell id="XH_TB9dUD3dWwwe9cZGV-210" value="Enroll student" style="ellipse;whiteSpace=wrap;html=1;" vertex="1" parent="WIyWlLk6GJQsqaUBKTNV-1">
          <mxGeometry x="1065" y="2830.03" width="120" height="80" as="geometry" />
        </mxCell>
        <mxCell id="XH_TB9dUD3dWwwe9cZGV-225" style="edgeStyle=orthogonalEdgeStyle;rounded=0;orthogonalLoop=1;jettySize=auto;html=1;endArrow=block;endFill=0;" edge="1" parent="WIyWlLk6GJQsqaUBKTNV-1" source="XH_TB9dUD3dWwwe9cZGV-223" target="XH_TB9dUD3dWwwe9cZGV-205">
          <mxGeometry relative="1" as="geometry" />
        </mxCell>
        <mxCell id="XH_TB9dUD3dWwwe9cZGV-230" value="&amp;lt;&amp;lt;Include&amp;gt;&amp;gt;" style="edgeStyle=none;rounded=0;orthogonalLoop=1;jettySize=auto;html=1;entryX=0.662;entryY=-0.01;entryDx=0;entryDy=0;entryPerimeter=0;dashed=1;endArrow=open;endFill=0;" edge="1" parent="WIyWlLk6GJQsqaUBKTNV-1" source="XH_TB9dUD3dWwwe9cZGV-223" target="XH_TB9dUD3dWwwe9cZGV-226">
          <mxGeometry relative="1" as="geometry" />
        </mxCell>
        <mxCell id="XH_TB9dUD3dWwwe9cZGV-223" value="Remove student" style="ellipse;whiteSpace=wrap;html=1;" vertex="1" parent="WIyWlLk6GJQsqaUBKTNV-1">
          <mxGeometry x="1200" y="2830.03" width="120" height="80" as="geometry" />
        </mxCell>
        <mxCell id="XH_TB9dUD3dWwwe9cZGV-231" value="&amp;lt;&amp;lt;Include&amp;gt;&amp;gt;" style="edgeStyle=none;rounded=0;orthogonalLoop=1;jettySize=auto;html=1;entryX=0.5;entryY=0;entryDx=0;entryDy=0;dashed=1;endArrow=open;endFill=0;" edge="1" parent="WIyWlLk6GJQsqaUBKTNV-1" source="XH_TB9dUD3dWwwe9cZGV-226" target="XH_TB9dUD3dWwwe9cZGV-227">
          <mxGeometry relative="1" as="geometry" />
        </mxCell>
        <mxCell id="XH_TB9dUD3dWwwe9cZGV-226" value="Input student ID" style="ellipse;whiteSpace=wrap;html=1;" vertex="1" parent="WIyWlLk6GJQsqaUBKTNV-1">
          <mxGeometry x="1130" y="2950" width="120" height="80" as="geometry" />
        </mxCell>
        <mxCell id="XH_TB9dUD3dWwwe9cZGV-233" value="&amp;lt;&amp;lt;Include&amp;gt;&amp;gt;" style="edgeStyle=none;rounded=0;orthogonalLoop=1;jettySize=auto;html=1;entryX=0.965;entryY=0.3;entryDx=0;entryDy=0;entryPerimeter=0;dashed=1;endArrow=open;endFill=0;exitX=0.075;exitY=0.77;exitDx=0;exitDy=0;exitPerimeter=0;" edge="1" parent="WIyWlLk6GJQsqaUBKTNV-1" source="XH_TB9dUD3dWwwe9cZGV-226" target="XH_TB9dUD3dWwwe9cZGV-232">
          <mxGeometry relative="1" as="geometry" />
        </mxCell>
        <mxCell id="XH_TB9dUD3dWwwe9cZGV-250" style="edgeStyle=orthogonalEdgeStyle;rounded=0;orthogonalLoop=1;jettySize=auto;html=1;entryX=0.5;entryY=0;entryDx=0;entryDy=0;endArrow=block;endFill=0;" edge="1" parent="WIyWlLk6GJQsqaUBKTNV-1" source="XH_TB9dUD3dWwwe9cZGV-227" target="XH_TB9dUD3dWwwe9cZGV-249">
          <mxGeometry relative="1" as="geometry" />
        </mxCell>
        <mxCell id="XH_TB9dUD3dWwwe9cZGV-227" value="Check if student exist" style="ellipse;whiteSpace=wrap;html=1;" vertex="1" parent="WIyWlLk6GJQsqaUBKTNV-1">
          <mxGeometry x="1130" y="3085" width="120" height="80" as="geometry" />
        </mxCell>
        <mxCell id="XH_TB9dUD3dWwwe9cZGV-232" value="Select exit" style="ellipse;whiteSpace=wrap;html=1;" vertex="1" parent="WIyWlLk6GJQsqaUBKTNV-1">
          <mxGeometry x="920" y="3155" width="120" height="80" as="geometry" />
        </mxCell>
        <mxCell id="XH_TB9dUD3dWwwe9cZGV-236" value="&amp;lt;&amp;lt;Extend&amp;gt;&amp;gt;" style="edgeStyle=none;rounded=0;orthogonalLoop=1;jettySize=auto;html=1;entryX=0.208;entryY=0.893;entryDx=0;entryDy=0;entryPerimeter=0;dashed=1;endArrow=open;endFill=0;" edge="1" parent="WIyWlLk6GJQsqaUBKTNV-1" source="XH_TB9dUD3dWwwe9cZGV-235" target="XH_TB9dUD3dWwwe9cZGV-227">
          <mxGeometry relative="1" as="geometry" />
        </mxCell>
        <mxCell id="XH_TB9dUD3dWwwe9cZGV-235" value="Display invalid student ID" style="ellipse;whiteSpace=wrap;html=1;" vertex="1" parent="WIyWlLk6GJQsqaUBKTNV-1">
          <mxGeometry x="990" y="3235" width="120" height="80" as="geometry" />
        </mxCell>
        <mxCell id="XH_TB9dUD3dWwwe9cZGV-251" style="edgeStyle=orthogonalEdgeStyle;rounded=0;orthogonalLoop=1;jettySize=auto;html=1;endArrow=block;endFill=0;" edge="1" parent="WIyWlLk6GJQsqaUBKTNV-1" source="XH_TB9dUD3dWwwe9cZGV-239" target="XH_TB9dUD3dWwwe9cZGV-249">
          <mxGeometry relative="1" as="geometry" />
        </mxCell>
        <mxCell id="XH_TB9dUD3dWwwe9cZGV-239" value="Display &amp;nbsp;enrolled successfully" style="ellipse;whiteSpace=wrap;html=1;" vertex="1" parent="WIyWlLk6GJQsqaUBKTNV-1">
          <mxGeometry x="1130" y="3360" width="120" height="80" as="geometry" />
        </mxCell>
        <mxCell id="XH_TB9dUD3dWwwe9cZGV-242" style="edgeStyle=none;rounded=0;orthogonalLoop=1;jettySize=auto;html=1;entryX=0;entryY=0.5;entryDx=0;entryDy=0;dashed=1;endArrow=open;endFill=0;" edge="1" parent="WIyWlLk6GJQsqaUBKTNV-1" source="XH_TB9dUD3dWwwe9cZGV-241" target="XH_TB9dUD3dWwwe9cZGV-249">
          <mxGeometry relative="1" as="geometry">
            <mxPoint x="1140.56" y="3304.4" as="targetPoint" />
          </mxGeometry>
        </mxCell>
        <mxCell id="XH_TB9dUD3dWwwe9cZGV-243" value="&amp;lt;&amp;lt;Extend&amp;gt;&amp;gt;" style="edgeLabel;html=1;align=center;verticalAlign=middle;resizable=0;points=[];" vertex="1" connectable="0" parent="XH_TB9dUD3dWwwe9cZGV-242">
          <mxGeometry x="-0.2011" y="1" relative="1" as="geometry">
            <mxPoint x="-1" as="offset" />
          </mxGeometry>
        </mxCell>
        <mxCell id="XH_TB9dUD3dWwwe9cZGV-241" value="Display enrollment existed" style="ellipse;whiteSpace=wrap;html=1;" vertex="1" parent="WIyWlLk6GJQsqaUBKTNV-1">
          <mxGeometry x="990" y="3427" width="120" height="80" as="geometry" />
        </mxCell>
        <mxCell id="XH_TB9dUD3dWwwe9cZGV-252" style="edgeStyle=orthogonalEdgeStyle;rounded=0;orthogonalLoop=1;jettySize=auto;html=1;endArrow=block;endFill=0;" edge="1" parent="WIyWlLk6GJQsqaUBKTNV-1" source="XH_TB9dUD3dWwwe9cZGV-244" target="XH_TB9dUD3dWwwe9cZGV-249">
          <mxGeometry relative="1" as="geometry" />
        </mxCell>
        <mxCell id="XH_TB9dUD3dWwwe9cZGV-244" value="Display remove student successfully" style="ellipse;whiteSpace=wrap;html=1;" vertex="1" parent="WIyWlLk6GJQsqaUBKTNV-1">
          <mxGeometry x="1280" y="3360" width="120" height="80" as="geometry" />
        </mxCell>
        <mxCell id="XH_TB9dUD3dWwwe9cZGV-249" value="Display" style="ellipse;whiteSpace=wrap;html=1;" vertex="1" parent="WIyWlLk6GJQsqaUBKTNV-1">
          <mxGeometry x="1200" y="3220" width="120" height="80" as="geometry" />
        </mxCell>
        <mxCell id="XH_TB9dUD3dWwwe9cZGV-254" style="rounded=0;orthogonalLoop=1;jettySize=auto;html=1;entryX=1;entryY=0.5;entryDx=0;entryDy=0;endArrow=open;endFill=0;dashed=1;" edge="1" parent="WIyWlLk6GJQsqaUBKTNV-1" source="XH_TB9dUD3dWwwe9cZGV-253" target="XH_TB9dUD3dWwwe9cZGV-249">
          <mxGeometry relative="1" as="geometry" />
        </mxCell>
        <mxCell id="XH_TB9dUD3dWwwe9cZGV-255" value="&amp;lt;&amp;lt;Extend&amp;gt;&amp;gt;" style="edgeLabel;html=1;align=center;verticalAlign=middle;resizable=0;points=[];" vertex="1" connectable="0" parent="XH_TB9dUD3dWwwe9cZGV-254">
          <mxGeometry x="-0.0489" y="3" relative="1" as="geometry">
            <mxPoint as="offset" />
          </mxGeometry>
        </mxCell>
        <mxCell id="XH_TB9dUD3dWwwe9cZGV-253" value="Display cannot find student" style="ellipse;whiteSpace=wrap;html=1;" vertex="1" parent="WIyWlLk6GJQsqaUBKTNV-1">
          <mxGeometry x="1380" y="3280" width="120" height="80" as="geometry" />
        </mxCell>
        <mxCell id="XH_TB9dUD3dWwwe9cZGV-257" style="edgeStyle=orthogonalEdgeStyle;rounded=0;orthogonalLoop=1;jettySize=auto;html=1;entryX=0.5;entryY=1;entryDx=0;entryDy=0;endArrow=block;endFill=0;" edge="1" parent="WIyWlLk6GJQsqaUBKTNV-1" source="XH_TB9dUD3dWwwe9cZGV-256" target="XH_TB9dUD3dWwwe9cZGV-205">
          <mxGeometry relative="1" as="geometry">
            <Array as="points">
              <mxPoint x="1400" y="2800" />
              <mxPoint x="1160" y="2800" />
            </Array>
          </mxGeometry>
        </mxCell>
        <mxCell id="XH_TB9dUD3dWwwe9cZGV-256" value="Update course data" style="ellipse;whiteSpace=wrap;html=1;" vertex="1" parent="WIyWlLk6GJQsqaUBKTNV-1">
          <mxGeometry x="1340" y="2830.03" width="120" height="80" as="geometry" />
        </mxCell>
        <mxCell id="XH_TB9dUD3dWwwe9cZGV-260" value="Select perform tasks" style="ellipse;whiteSpace=wrap;html=1;" vertex="1" parent="WIyWlLk6GJQsqaUBKTNV-1">
          <mxGeometry x="1100" y="2230" width="120" height="80" as="geometry" />
        </mxCell>
        <mxCell id="XH_TB9dUD3dWwwe9cZGV-263" value="Select exit" style="ellipse;whiteSpace=wrap;html=1;" vertex="1" parent="WIyWlLk6GJQsqaUBKTNV-1">
          <mxGeometry x="1280" y="2280" width="120" height="80" as="geometry" />
        </mxCell>
        <mxCell id="XH_TB9dUD3dWwwe9cZGV-266" value="&amp;lt;&amp;lt;Extend&amp;gt;&amp;gt;" style="edgeStyle=none;rounded=0;orthogonalLoop=1;jettySize=auto;html=1;entryX=1;entryY=0;entryDx=0;entryDy=0;dashed=1;endArrow=open;endFill=0;" edge="1" parent="WIyWlLk6GJQsqaUBKTNV-1" source="XH_TB9dUD3dWwwe9cZGV-265" target="XH_TB9dUD3dWwwe9cZGV-260">
          <mxGeometry relative="1" as="geometry" />
        </mxCell>
        <mxCell id="XH_TB9dUD3dWwwe9cZGV-267" style="edgeStyle=none;rounded=0;orthogonalLoop=1;jettySize=auto;html=1;entryX=0.5;entryY=0;entryDx=0;entryDy=0;dashed=1;endArrow=open;endFill=0;" edge="1" parent="WIyWlLk6GJQsqaUBKTNV-1" source="XH_TB9dUD3dWwwe9cZGV-265" target="XH_TB9dUD3dWwwe9cZGV-263">
          <mxGeometry relative="1" as="geometry" />
        </mxCell>
        <mxCell id="XH_TB9dUD3dWwwe9cZGV-268" value="&amp;lt;&amp;lt;Extend&amp;gt;&amp;gt;" style="edgeLabel;html=1;align=center;verticalAlign=middle;resizable=0;points=[];" vertex="1" connectable="0" parent="XH_TB9dUD3dWwwe9cZGV-267">
          <mxGeometry x="-0.0294" y="3" relative="1" as="geometry">
            <mxPoint as="offset" />
          </mxGeometry>
        </mxCell>
        <mxCell id="XH_TB9dUD3dWwwe9cZGV-265" value="Display invalid choice" style="ellipse;whiteSpace=wrap;html=1;" vertex="1" parent="WIyWlLk6GJQsqaUBKTNV-1">
          <mxGeometry x="1280" y="2120" width="120" height="80" as="geometry" />
        </mxCell>
        <mxCell id="XH_TB9dUD3dWwwe9cZGV-271" style="edgeStyle=orthogonalEdgeStyle;rounded=0;orthogonalLoop=1;jettySize=auto;html=1;entryX=0.5;entryY=0;entryDx=0;entryDy=0;endArrow=block;endFill=0;" edge="1" parent="WIyWlLk6GJQsqaUBKTNV-1" source="XH_TB9dUD3dWwwe9cZGV-269" target="XH_TB9dUD3dWwwe9cZGV-260">
          <mxGeometry relative="1" as="geometry" />
        </mxCell>
        <mxCell id="XH_TB9dUD3dWwwe9cZGV-274" style="rounded=0;orthogonalLoop=1;jettySize=auto;html=1;entryX=0.5;entryY=1;entryDx=0;entryDy=0;endArrow=open;endFill=0;dashed=1;" edge="1" parent="WIyWlLk6GJQsqaUBKTNV-1" source="XH_TB9dUD3dWwwe9cZGV-269" target="XH_TB9dUD3dWwwe9cZGV-273">
          <mxGeometry relative="1" as="geometry" />
        </mxCell>
        <mxCell id="XH_TB9dUD3dWwwe9cZGV-277" value="&amp;lt;&amp;lt;Include&amp;gt;&amp;gt;" style="edgeLabel;html=1;align=center;verticalAlign=middle;resizable=0;points=[];" vertex="1" connectable="0" parent="XH_TB9dUD3dWwwe9cZGV-274">
          <mxGeometry x="-0.001" y="3" relative="1" as="geometry">
            <mxPoint as="offset" />
          </mxGeometry>
        </mxCell>
        <mxCell id="XH_TB9dUD3dWwwe9cZGV-269" value="Add course to semester" style="ellipse;whiteSpace=wrap;html=1;" vertex="1" parent="WIyWlLk6GJQsqaUBKTNV-1">
          <mxGeometry x="1010" y="2050" width="120" height="80" as="geometry" />
        </mxCell>
        <mxCell id="XH_TB9dUD3dWwwe9cZGV-272" style="edgeStyle=orthogonalEdgeStyle;rounded=0;orthogonalLoop=1;jettySize=auto;html=1;endArrow=block;endFill=0;" edge="1" parent="WIyWlLk6GJQsqaUBKTNV-1" source="XH_TB9dUD3dWwwe9cZGV-270" target="XH_TB9dUD3dWwwe9cZGV-260">
          <mxGeometry relative="1" as="geometry" />
        </mxCell>
        <mxCell id="XH_TB9dUD3dWwwe9cZGV-276" style="edgeStyle=none;rounded=0;orthogonalLoop=1;jettySize=auto;html=1;entryX=0.5;entryY=1;entryDx=0;entryDy=0;dashed=1;endArrow=open;endFill=0;" edge="1" parent="WIyWlLk6GJQsqaUBKTNV-1" source="XH_TB9dUD3dWwwe9cZGV-270" target="XH_TB9dUD3dWwwe9cZGV-273">
          <mxGeometry relative="1" as="geometry" />
        </mxCell>
        <mxCell id="XH_TB9dUD3dWwwe9cZGV-278" value="&amp;lt;&amp;lt;Include&amp;gt;&amp;gt;" style="edgeLabel;html=1;align=center;verticalAlign=middle;resizable=0;points=[];" vertex="1" connectable="0" parent="XH_TB9dUD3dWwwe9cZGV-276">
          <mxGeometry x="-0.2216" relative="1" as="geometry">
            <mxPoint as="offset" />
          </mxGeometry>
        </mxCell>
        <mxCell id="XH_TB9dUD3dWwwe9cZGV-270" value="Remove course from semester" style="ellipse;whiteSpace=wrap;html=1;" vertex="1" parent="WIyWlLk6GJQsqaUBKTNV-1">
          <mxGeometry x="1185" y="2050" width="120" height="80" as="geometry" />
        </mxCell>
        <mxCell id="XH_TB9dUD3dWwwe9cZGV-280" value="&amp;lt;&amp;lt;Include&amp;gt;&amp;gt;" style="edgeStyle=none;rounded=0;orthogonalLoop=1;jettySize=auto;html=1;entryX=0.5;entryY=1;entryDx=0;entryDy=0;dashed=1;endArrow=open;endFill=0;" edge="1" parent="WIyWlLk6GJQsqaUBKTNV-1" source="XH_TB9dUD3dWwwe9cZGV-273" target="XH_TB9dUD3dWwwe9cZGV-279">
          <mxGeometry relative="1" as="geometry" />
        </mxCell>
        <mxCell id="XH_TB9dUD3dWwwe9cZGV-273" value="Input course ID" style="ellipse;whiteSpace=wrap;html=1;" vertex="1" parent="WIyWlLk6GJQsqaUBKTNV-1">
          <mxGeometry x="1100" y="1920" width="120" height="80" as="geometry" />
        </mxCell>
        <mxCell id="XH_TB9dUD3dWwwe9cZGV-284" value="&amp;lt;&amp;lt;Include&amp;gt;&amp;gt;" style="edgeStyle=none;rounded=0;orthogonalLoop=1;jettySize=auto;html=1;entryX=0.5;entryY=1;entryDx=0;entryDy=0;dashed=1;endArrow=open;endFill=0;" edge="1" parent="WIyWlLk6GJQsqaUBKTNV-1" source="XH_TB9dUD3dWwwe9cZGV-279" target="XH_TB9dUD3dWwwe9cZGV-283">
          <mxGeometry relative="1" as="geometry" />
        </mxCell>
        <mxCell id="XH_TB9dUD3dWwwe9cZGV-279" value="Check if course exist" style="ellipse;whiteSpace=wrap;html=1;" vertex="1" parent="WIyWlLk6GJQsqaUBKTNV-1">
          <mxGeometry x="1100" y="1800" width="120" height="80" as="geometry" />
        </mxCell>
        <mxCell id="XH_TB9dUD3dWwwe9cZGV-282" style="edgeStyle=none;rounded=0;orthogonalLoop=1;jettySize=auto;html=1;entryX=0.968;entryY=0.684;entryDx=0;entryDy=0;entryPerimeter=0;dashed=1;endArrow=open;endFill=0;" edge="1" parent="WIyWlLk6GJQsqaUBKTNV-1" source="XH_TB9dUD3dWwwe9cZGV-281" target="XH_TB9dUD3dWwwe9cZGV-279">
          <mxGeometry relative="1" as="geometry" />
        </mxCell>
        <mxCell id="XH_TB9dUD3dWwwe9cZGV-281" value="Display invalid course" style="ellipse;whiteSpace=wrap;html=1;" vertex="1" parent="WIyWlLk6GJQsqaUBKTNV-1">
          <mxGeometry x="1270" y="1830" width="120" height="80" as="geometry" />
        </mxCell>
        <mxCell id="XH_TB9dUD3dWwwe9cZGV-283" value="Display" style="ellipse;whiteSpace=wrap;html=1;" vertex="1" parent="WIyWlLk6GJQsqaUBKTNV-1">
          <mxGeometry x="1100" y="1670" width="120" height="80" as="geometry" />
        </mxCell>
        <mxCell id="XH_TB9dUD3dWwwe9cZGV-287" style="edgeStyle=orthogonalEdgeStyle;rounded=0;orthogonalLoop=1;jettySize=auto;html=1;entryX=0.5;entryY=0;entryDx=0;entryDy=0;endArrow=block;endFill=0;" edge="1" parent="WIyWlLk6GJQsqaUBKTNV-1" source="XH_TB9dUD3dWwwe9cZGV-285" target="XH_TB9dUD3dWwwe9cZGV-283">
          <mxGeometry relative="1" as="geometry" />
        </mxCell>
        <mxCell id="XH_TB9dUD3dWwwe9cZGV-285" value="Display add course successfully" style="ellipse;whiteSpace=wrap;html=1;" vertex="1" parent="WIyWlLk6GJQsqaUBKTNV-1">
          <mxGeometry x="1020" y="1550" width="120" height="80" as="geometry" />
        </mxCell>
        <mxCell id="XH_TB9dUD3dWwwe9cZGV-288" style="edgeStyle=orthogonalEdgeStyle;rounded=0;orthogonalLoop=1;jettySize=auto;html=1;entryX=0.5;entryY=0;entryDx=0;entryDy=0;endArrow=block;endFill=0;" edge="1" parent="WIyWlLk6GJQsqaUBKTNV-1" source="XH_TB9dUD3dWwwe9cZGV-286" target="XH_TB9dUD3dWwwe9cZGV-283">
          <mxGeometry relative="1" as="geometry" />
        </mxCell>
        <mxCell id="XH_TB9dUD3dWwwe9cZGV-286" value="Display remove course successfully" style="ellipse;whiteSpace=wrap;html=1;" vertex="1" parent="WIyWlLk6GJQsqaUBKTNV-1">
          <mxGeometry x="1181" y="1550" width="120" height="80" as="geometry" />
        </mxCell>
        <mxCell id="XH_TB9dUD3dWwwe9cZGV-290" value="" style="rounded=0;whiteSpace=wrap;html=1;fillColor=none;gradientColor=#ffffff;" vertex="1" parent="WIyWlLk6GJQsqaUBKTNV-1">
          <mxGeometry x="40" y="40" width="1540" height="3620" as="geometry" />
        </mxCell>
        <mxCell id="XH_TB9dUD3dWwwe9cZGV-294" style="rounded=0;orthogonalLoop=1;jettySize=auto;html=1;exitX=0.5;exitY=0.5;exitDx=0;exitDy=0;exitPerimeter=0;fontSize=24;endArrow=none;endFill=0;entryX=0.104;entryY=0.191;entryDx=0;entryDy=0;entryPerimeter=0;" edge="1" parent="WIyWlLk6GJQsqaUBKTNV-1" source="XH_TB9dUD3dWwwe9cZGV-291" target="XH_TB9dUD3dWwwe9cZGV-290">
          <mxGeometry relative="1" as="geometry">
            <mxPoint x="-130" y="1210" as="targetPoint" />
          </mxGeometry>
        </mxCell>
        <mxCell id="XH_TB9dUD3dWwwe9cZGV-295" style="edgeStyle=none;rounded=0;orthogonalLoop=1;jettySize=auto;html=1;exitX=0.5;exitY=0.5;exitDx=0;exitDy=0;exitPerimeter=0;entryX=0.104;entryY=0.072;entryDx=0;entryDy=0;entryPerimeter=0;fontSize=24;endArrow=none;endFill=0;" edge="1" parent="WIyWlLk6GJQsqaUBKTNV-1" source="XH_TB9dUD3dWwwe9cZGV-291" target="XH_TB9dUD3dWwwe9cZGV-290">
          <mxGeometry relative="1" as="geometry" />
        </mxCell>
        <mxCell id="XH_TB9dUD3dWwwe9cZGV-298" style="edgeStyle=none;rounded=0;orthogonalLoop=1;jettySize=auto;html=1;exitX=0.5;exitY=0.5;exitDx=0;exitDy=0;exitPerimeter=0;fontSize=24;endArrow=none;endFill=0;" edge="1" parent="WIyWlLk6GJQsqaUBKTNV-1" source="XH_TB9dUD3dWwwe9cZGV-291">
          <mxGeometry relative="1" as="geometry">
            <mxPoint x="190" y="1790" as="targetPoint" />
          </mxGeometry>
        </mxCell>
        <mxCell id="XH_TB9dUD3dWwwe9cZGV-291" value="&lt;font style=&quot;font-size: 24px&quot;&gt;System Manager&lt;/font&gt;" style="shape=umlActor;verticalLabelPosition=bottom;verticalAlign=top;html=1;outlineConnect=0;fillColor=none;gradientColor=#ffffff;" vertex="1" parent="WIyWlLk6GJQsqaUBKTNV-1">
          <mxGeometry x="-590" y="1480" width="170" height="300" as="geometry" />
        </mxCell>
      </root>
    </mxGraphModel>
  </diagram>
</mxfile>
